<?xml version="1.0" standalone="no"?>
<!DOCTYPE svg PUBLIC "-//W3C//DTD SVG 20010904//EN"
 "http://www.w3.org/TR/2001/REC-SVG-20010904/DTD/svg10.dtd">
<svg version="1.0" xmlns="http://www.w3.org/2000/svg"
 width="736.000000pt" height="736.000000pt" viewBox="0 0 736.000000 736.000000"
 preserveAspectRatio="xMidYMid meet">

<g transform="translate(0.000000,736.000000) scale(0.100000,-0.100000)"
fill="#000000" stroke="none">
<path d="M6525 6871 c-47 -21 -121 -98 -141 -147 -35 -83 -34 -197 2 -266 28
-54 89 -111 149 -140 104 -49 254 -33 340 36 45 36 26 40 -36 7 -136 -72 -263
-61 -367 33 -78 71 -110 213 -70 307 21 48 82 115 136 150 51 32 43 45 -13 20z"/>
<path d="M2495 6054 c-195 -19 -376 -90 -516 -202 -41 -33 -88 -78 -106 -100
-82 -102 -153 -281 -196 -498 -14 -67 -32 -136 -42 -155 -16 -33 -16 -33 20 9
40 45 67 58 41 17 -9 -13 -16 -28 -16 -32 0 -4 5 -1 10 7 8 12 10 11 10 -7 0
-12 -11 -34 -24 -50 -44 -53 -58 -214 -25 -299 5 -15 8 -29 5 -31 -6 -6 -36
52 -53 102 l-13 40 5 -44 c8 -63 51 -137 111 -188 49 -43 52 -47 57 -106 8
-79 21 -123 49 -167 17 -27 23 -50 23 -100 1 -186 177 -299 508 -325 73 -6 87
-10 87 -25 0 -22 -20 -38 -95 -80 -33 -18 -82 -50 -109 -72 -57 -45 -43 -41
-259 -73 -93 -14 -177 -30 -188 -35 -41 -22 -41 -39 -9 -297 30 -246 30 -248
11 -263 -11 -8 -35 -46 -53 -85 -28 -60 -32 -81 -32 -145 0 -64 5 -84 30 -130
32 -60 82 -100 124 -100 32 0 29 10 55 -185 10 -66 22 -131 28 -143 9 -19 50
-50 74 -58 2 0 -28 -72 -65 -160 -38 -88 -91 -220 -118 -294 -27 -74 -56 -142
-65 -151 -29 -29 -59 -126 -59 -188 l0 -59 -77 -4 c-47 -2 -90 -10 -108 -20
-16 -9 -47 -24 -68 -34 -164 -73 -59 -241 240 -387 50 -24 101 -47 114 -51 24
-8 11 -10 -239 -46 -41 -5 -81 -15 -90 -20 -13 -8 -8 -9 18 -4 19 3 32 3 28
-1 -4 -5 -33 -9 -64 -11 -136 -8 -376 -157 -744 -464 -63 -53 -130 -105 -148
-115 -17 -11 -32 -23 -32 -28 0 -4 -4 -5 -10 -2 -5 3 -10 13 -10 21 0 9 5 12
12 8 7 -5 8 -3 4 5 -5 7 -15 10 -23 6 -12 -4 -13 -2 -6 7 15 18 26 78 15 78
-5 0 -15 -11 -22 -25 -14 -26 -33 -25 -23 2 10 26 -47 -16 -67 -50 l-18 -28
-7 106 c-8 119 1 145 30 91 17 -31 22 -34 54 -29 20 3 45 10 56 14 19 7 19 8
-2 8 -39 2 -53 12 -53 42 0 33 6 35 39 13 16 -12 37 -15 72 -12 85 9 137 81
109 152 -8 22 -8 32 1 40 9 8 10 7 4 -4 -6 -11 -5 -12 4 -4 25 23 -5 89 -67
150 l-57 56 -13 -29 -13 -28 4 33 c4 39 -19 57 -61 49 -25 -5 -25 -4 -7 9 31
23 3 15 -40 -11 -22 -14 -43 -25 -47 -25 -4 0 -18 12 -32 26 -28 31 -47 28
-72 -11 -13 -20 -14 -29 -5 -34 8 -5 3 -11 -14 -19 -36 -16 -40 -16 -85 14
-32 21 -43 24 -55 14 -11 -9 -19 -8 -37 4 -12 9 -37 16 -55 16 -28 0 -33 -3
-33 -24 0 -14 4 -28 10 -31 5 -3 10 -1 10 4 0 15 55 14 68 -2 8 -9 2 -22 -22
-48 -28 -30 -34 -33 -46 -20 -10 10 -15 11 -18 3 -2 -7 10 -26 27 -43 30 -29
43 -79 21 -79 -5 0 -10 5 -10 10 0 6 -9 20 -20 32 l-20 22 0 -337 0 -337 143
0 143 0 13 49 c13 52 40 99 41 71 0 -8 -9 -39 -19 -67 l-19 -52 709 -1 c600 0
709 2 709 14 0 7 41 81 91 162 50 82 103 169 117 192 15 24 62 98 105 164 83
127 108 179 89 186 -8 2 -8 11 -1 29 8 21 6 30 -11 48 -11 12 -20 24 -20 28 0
4 91 5 203 3 111 -2 304 -5 428 -5 l227 -1 -148 -145 c-128 -125 -153 -145
-182 -146 -18 -1 -25 -3 -15 -6 9 -2 17 -8 17 -12 0 -10 -170 -158 -385 -336
-99 -81 -187 -154 -195 -162 -12 -11 85 -13 597 -13 l611 0 35 108 c24 71 41
108 52 110 11 3 13 7 6 15 -10 13 50 208 73 236 6 7 11 19 11 25 0 15 20 73
67 194 38 99 39 104 22 117 -15 10 -15 13 -4 13 34 -2 60 3 60 11 0 5 -11 9
-25 9 -14 0 -28 1 -30 3 -2 3 5 55 16 117 20 122 17 163 -21 250 -19 42 -19
43 1 77 20 34 21 38 5 126 -8 50 -20 96 -25 103 -6 7 -26 64 -45 127 -19 63
-41 134 -49 159 -8 25 -24 126 -36 225 -12 99 -24 198 -27 220 -5 38 -3 41 28
55 29 13 33 20 36 57 3 39 -49 319 -68 366 -15 38 -11 4 14 -109 37 -166 51
-273 37 -287 -8 -8 -11 -7 -11 4 0 21 -32 49 -56 49 -11 0 -60 -14 -110 -30
-236 -81 -508 -130 -715 -130 -137 0 -249 9 -249 20 0 4 73 12 163 19 89 7
211 17 270 22 60 6 111 8 114 5 4 -3 -9 -6 -28 -7 -19 0 -43 -5 -54 -10 -16
-7 -14 -8 10 -4 38 6 153 17 183 17 22 0 22 1 5 14 -22 17 -1 19 29 3 15 -8
23 -8 32 1 8 8 7 10 -6 5 -10 -4 -18 -3 -18 2 0 5 17 10 37 11 53 4 125 21
140 34 18 14 16 57 -7 260 -34 282 -32 257 -15 228 17 -30 19 -44 3 -34 -7 4
-8 3 -4 -5 4 -6 11 -9 16 -6 4 3 13 -2 20 -10 17 -21 48 -19 110 7 44 18 53
19 61 7 7 -11 9 -10 9 6 0 14 18 29 66 54 91 47 157 101 179 147 27 58 17 154
-28 247 -41 88 -153 262 -254 397 -128 170 -160 197 -291 245 -74 28 -90 38
-104 66 l-18 33 70 36 c97 49 191 119 236 177 l38 48 81 0 c72 0 86 3 123 28
64 42 93 94 99 174 3 39 13 81 23 98 30 50 78 228 96 353 24 176 16 400 -19
507 -37 113 -89 196 -187 299 -158 165 -357 273 -592 320 -76 15 -264 26 -333
20z m281 -29 c387 -63 728 -323 819 -625 26 -86 36 -228 25 -356 -12 -151 -31
-274 -42 -268 -4 3 -8 15 -8 27 0 62 -174 247 -335 356 -188 128 -420 227
-615 262 -110 20 -346 17 -450 -5 -184 -39 -355 -120 -442 -208 -32 -32 -58
-55 -58 -51 0 5 16 73 34 153 66 283 132 408 273 525 71 59 204 131 291 160
139 45 343 57 508 30z m-737 -1098 c28 -30 48 -56 45 -59 -3 -3 0 -9 7 -14 8
-4 10 -3 5 4 -4 7 -4 12 1 12 14 0 63 -36 57 -42 -3 -3 0 -9 7 -14 8 -4 10 -3
5 4 -9 15 -6 15 39 -4 55 -23 52 -12 -8 29 -61 43 -128 108 -89 88 13 -7 58
-36 100 -64 42 -29 115 -68 162 -87 74 -29 99 -34 193 -38 74 -3 112 -1 122 8
8 6 20 8 26 4 8 -4 9 -3 5 4 -4 7 -17 12 -28 12 -12 0 -18 3 -15 6 8 8 188
-33 250 -57 64 -25 59 -16 -10 19 -31 16 -52 31 -47 35 5 3 46 -13 91 -36 63
-32 85 -48 95 -72 14 -33 17 -148 5 -210 l-7 -40 46 50 46 49 -16 -38 c-9 -22
-15 -40 -13 -42 9 -10 110 82 154 141 63 84 86 96 139 68 115 -58 112 -256 -5
-338 -38 -27 -51 -30 -119 -31 l-77 0 -75 -75 c-174 -174 -399 -254 -710 -252
-258 1 -432 54 -519 160 -41 50 -54 102 -48 188 5 68 -6 153 -38 292 -17 70
-20 191 -5 213 9 13 10 13 10 -1 0 -8 13 -28 30 -44 27 -26 28 -29 12 -42 -15
-13 -13 -14 17 -9 18 3 61 6 94 6 l61 0 -28 29 -29 30 24 5 c83 17 80 15 69
36 -14 26 -54 35 -96 22 -19 -5 -36 -7 -38 -4 -10 17 -17 167 -10 218 l7 57
28 -61 c15 -34 50 -86 78 -115z m1518 -234 c-6 -52 -47 -155 -54 -137 -2 6 5
33 15 60 11 27 22 66 26 87 10 53 20 46 13 -10z m-1753 -169 c4 -21 17 -69 27
-106 24 -82 24 -95 4 -78 -36 30 -86 239 -54 228 8 -2 18 -22 23 -44z m1071
-595 c31 -62 31 -71 1 -106 -20 -24 -31 -27 -82 -29 -33 0 -80 -4 -106 -8 -42
-7 -46 -6 -43 10 2 11 4 22 4 26 1 3 23 14 49 22 27 9 68 29 90 44 37 23 42
31 42 65 0 48 12 41 45 -24z m-65 22 c0 -35 -31 -56 -127 -91 -60 -22 -63 -24
-63 -55 0 -27 -4 -34 -25 -37 -21 -4 -25 -1 -25 19 0 19 -9 28 -40 40 -50 20
-57 52 -10 45 17 -2 30 0 30 4 0 5 14 9 31 10 32 1 77 33 49 35 -8 0 23 11 68
24 46 13 86 26 90 29 13 14 22 4 22 -23z m-346 -78 c1 -32 7 -41 39 -62 20
-13 37 -30 37 -36 0 -14 -44 -25 -96 -25 -30 0 -34 3 -40 36 -5 28 -2 40 14
57 11 12 24 35 27 50 9 36 18 27 19 -20z m596 -28 c72 -37 142 -113 267 -292
193 -276 243 -384 228 -494 -5 -38 -15 -57 -46 -88 -49 -49 -226 -143 -215
-115 15 39 25 128 19 173 -7 56 -35 116 -75 157 l-29 31 48 21 c60 26 38 28
-42 3 l-60 -19 -27 48 c-15 27 -32 51 -38 55 -6 3 -8 11 -4 16 3 5 1 15 -4 22
-15 18 -34 209 -28 275 l5 57 -10 -45 c-6 -25 -8 -101 -6 -168 3 -70 1 -120
-4 -115 -8 8 -30 144 -44 268 -11 103 -21 123 -68 137 -54 15 -51 12 -31 43 9
14 17 42 16 60 l-1 34 50 -19 c27 -11 72 -31 99 -45z m-677 -96 c-1 -4 -31
-12 -65 -18 -35 -7 -74 -15 -87 -18 -39 -10 -16 14 68 69 l76 50 5 -39 c3 -21
5 -41 3 -44z m437 21 c11 -7 4 -10 -26 -10 -23 0 -63 -2 -90 -5 -48 -4 -48 -4
11 9 76 17 87 18 105 6z m112 -29 c5 -5 32 -206 54 -406 3 -27 8 -58 10 -67 5
-16 2 -16 -36 -1 -26 10 -42 24 -45 37 -4 21 -29 243 -40 351 -3 33 -8 70 -11
82 -4 21 -1 22 28 16 18 -3 36 -8 40 -12z m-582 -37 c-8 -2 -107 -19 -220 -38
-113 -19 -238 -42 -277 -51 l-73 -17 0 -40 c0 -43 11 -142 40 -346 9 -68 13
-125 9 -127 -9 -6 -14 24 -38 225 -37 310 -36 286 -9 304 22 15 232 52 428 77
47 6 87 13 89 15 2 2 18 3 35 3 17 -1 24 -3 16 -5z m403 -31 c-7 -2 -19 -2
-25 0 -7 3 -2 5 12 5 14 0 19 -2 13 -5z m24 -25 c-3 -7 -5 -2 -5 12 0 14 2 19
5 13 2 -7 2 -19 0 -25z m-102 12 c-16 -4 -46 -8 -65 -7 l-35 0 40 7 c22 4 51
7 65 7 22 1 22 0 -5 -7z m-122 -17 c-7 -2 -21 -2 -30 0 -10 3 -4 5 12 5 17 0
24 -2 18 -5z m184 -60 c1 -38 -1 -63 -4 -56 -2 7 -12 9 -21 6 -13 -4 -12 -2 3
10 11 8 17 19 13 23 -4 4 -14 1 -23 -6 -12 -10 -15 -10 -15 1 0 10 -3 10 -12
1 -17 -17 -39 -15 -32 2 3 8 12 12 20 9 8 -3 14 1 14 8 0 11 2 11 9 0 15 -23
44 5 31 29 -5 9 -7 20 -4 23 9 9 -80 -5 -90 -14 -6 -5 -6 -14 0 -22 5 -7 1 -5
-8 5 -9 10 -20 18 -25 17 -4 -1 -15 0 -23 1 -13 2 108 25 151 29 13 1 16 -11
16 -66z m-272 46 c-22 -4 -51 -8 -65 -7 -35 1 34 15 75 16 25 0 23 -2 -10 -9z
m328 -84 c4 -57 3 -69 -3 -40 -9 40 -13 132 -6 124 2 -2 6 -40 9 -84z m-430
68 c-7 -2 -21 -2 -30 0 -10 3 -4 5 12 5 17 0 24 -2 18 -5z m187 -8 c0 -9 7
-18 15 -21 8 -4 12 -10 9 -16 -8 -12 -34 10 -34 28 0 8 -7 14 -15 14 -21 0
-19 -6 11 -46 25 -32 28 -33 44 -19 14 13 19 13 23 3 2 -7 7 -11 10 -8 4 3 -1
19 -9 35 -12 25 -13 27 -1 15 24 -24 30 -57 12 -64 -8 -3 -15 -1 -15 4 0 5 -7
7 -15 4 -12 -5 -13 -9 -4 -21 7 -7 17 -12 24 -9 6 2 12 -2 12 -10 0 -21 -20
-17 -35 6 -7 11 -20 20 -30 20 -9 0 -27 18 -40 41 l-24 41 -61 -5 c-78 -8 -60
1 24 12 95 12 99 12 99 -4z m-252 -2 c-10 -2 -26 -2 -35 0 -10 3 -2 5 17 5 19
0 27 -2 18 -5z m-70 -10 c-10 -2 -28 -2 -40 0 -13 2 -5 4 17 4 22 1 32 -1 23
-4z m-90 -10 c-10 -2 -26 -2 -35 0 -10 3 -2 5 17 5 19 0 27 -2 18 -5z m205 -3
c-12 -5 -27 -17 -33 -27 -10 -16 -11 -16 -6 0 3 9 1 17 -4 17 -6 0 -10 -4 -10
-10 0 -5 -5 -10 -11 -10 -5 0 -7 4 -4 10 5 9 -51 6 -107 -5 -10 -2 -18 1 -18
5 0 5 30 11 68 15 37 3 76 7 87 9 11 2 29 4 40 4 19 1 18 0 -2 -8z m-290 -7
c-7 -2 -21 -2 -30 0 -10 3 -4 5 12 5 17 0 24 -2 18 -5z m704 -15 c-3 -8 -6 -5
-6 6 -1 11 2 17 5 13 3 -3 4 -12 1 -19z m-764 5 c-7 -2 -19 -2 -25 0 -7 3 -2
5 12 5 14 0 19 -2 13 -5z m-60 -10 c-7 -2 -21 -2 -30 0 -10 3 -4 5 12 5 17 0
24 -2 18 -5z m205 1 c-4 -3 -35 -7 -70 -9 -42 -2 -52 -1 -28 4 52 10 105 13
98 5z m-282 -11 c-21 -6 -21 11 9 -253 9 -74 20 -150 25 -167 4 -18 5 -33 0
-33 -12 0 -24 71 -35 195 -4 39 -10 94 -16 124 -5 30 -9 74 -9 98 0 38 2 43
23 42 18 -1 19 -2 3 -6z m832 -15 c-2 -8 5 -12 17 -10 18 2 18 1 -4 -16 -23
-18 -23 -20 -8 -43 9 -13 27 -29 39 -37 22 -13 22 -13 -9 -8 -34 6 -41 -2 -21
-22 8 -8 17 -8 30 -1 11 6 22 8 26 5 8 -9 1 -13 -35 -21 -26 -5 -33 -3 -33 8
0 20 -59 79 -71 71 -5 -3 -9 -1 -9 3 0 10 40 37 55 38 6 0 10 7 10 15 0 8 -6
14 -13 12 -8 -1 -11 2 -7 8 9 14 35 12 33 -2z m-788 -5 c-8 -3 -21 -12 -27
-21 -11 -14 -13 -14 -13 -1 0 21 10 29 34 28 14 0 16 -2 6 -6z m161 -16 c-10
-9 -11 -8 -5 6 3 10 9 15 12 12 3 -3 0 -11 -7 -18z m25 -14 c-7 -20 -18 -39
-25 -41 -8 -3 -5 11 8 37 26 51 34 53 17 4z m681 0 c-3 -10 -5 -4 -5 12 0 17
2 24 5 18 2 -7 2 -21 0 -30z m-34 0 c-18 -6 -16 -23 2 -23 8 0 15 -7 15 -15 0
-14 -3 -13 -24 2 -22 17 -23 19 -8 36 8 9 18 14 21 11 3 -4 0 -9 -6 -11z
m-836 -11 c-10 -10 -17 -24 -17 -31 0 -7 -4 -9 -10 -6 -17 10 -11 30 13 41 31
16 32 16 14 -4z m48 -3 c-10 -15 -25 -10 -19 6 4 8 10 12 15 9 5 -3 7 -10 4
-15z m24 -15 c-10 -13 -10 -17 2 -25 8 -5 17 -9 22 -9 11 0 9 18 -3 23 -6 3
-5 4 2 3 21 -4 15 -30 -7 -34 -11 -2 -28 -11 -37 -20 -10 -8 -18 -10 -18 -5 0
6 7 13 15 17 8 3 15 10 15 16 0 5 -7 10 -15 10 -8 0 -15 5 -15 10 0 6 6 10 14
10 8 0 18 10 22 23 4 13 9 17 12 9 2 -7 -2 -20 -9 -28z m70 19 c11 10 11 8 0
-10 l-13 -22 -18 21 c-23 27 -23 36 0 15 15 -13 21 -14 31 -4z m768 -75 c-2
-13 -4 -5 -4 17 -1 22 1 32 4 23 2 -10 2 -28 0 -40z m-321 15 l25 -28 -4 28
c-6 41 10 33 18 -9 9 -49 0 -53 -36 -18 -19 18 -28 23 -24 11 4 -9 4 -25 -1
-34 -6 -14 -9 -8 -14 22 -9 63 -2 69 36 28z m291 5 c-3 -8 -6 -5 -6 6 -1 11 2
17 5 13 3 -3 4 -12 1 -19z m-749 -15 c-19 -44 -28 -52 -54 -47 -17 3 -24 0
-24 -12 0 -14 -1 -14 -16 0 -8 9 -20 16 -25 16 -5 0 -9 5 -9 10 0 7 8 7 22 -1
17 -9 23 -9 26 0 3 9 8 9 19 -1 14 -11 15 -10 8 11 -5 16 -4 21 4 17 6 -4 11
-14 11 -22 0 -8 4 -13 10 -9 5 3 7 12 3 20 -3 8 0 15 6 15 6 0 11 7 11 15 0 8
4 15 10 15 6 0 5 -11 -2 -27z m-108 3 c-7 -7 -13 -7 -20 0 -6 6 -3 10 10 10
13 0 16 -4 10 -10z m489 -22 c13 -22 16 -34 9 -32 -7 3 -18 15 -24 27 -11 21
-12 20 -28 -18 -9 -23 -21 -41 -27 -41 -6 0 -9 3 -7 8 2 4 13 26 24 49 10 24
22 43 26 43 3 0 16 -16 27 -36z m-525 10 c3 -8 2 -12 -4 -9 -6 3 -10 10 -10
16 0 14 7 11 14 -7z m400 1 c-4 -10 0 -15 11 -15 11 0 15 5 11 15 -3 8 -1 15
4 15 17 0 20 -18 7 -49 l-13 -31 -22 23 c-25 27 -29 57 -7 57 9 0 12 -6 9 -15z
m-56 -7 c18 -18 15 -66 -5 -76 -22 -12 -61 2 -69 23 -8 21 22 65 44 65 10 0
23 -5 30 -12z m-103 -56 c43 -46 35 -59 -10 -14 -27 26 -28 26 -23 5 4 -13 2
-23 -3 -23 -5 0 -9 19 -9 42 0 23 1 39 3 37 1 -2 20 -23 42 -47z m5 38 c0 -5
-4 -10 -10 -10 -5 0 -10 5 -10 10 0 6 5 10 10 10 6 0 10 -4 10 -10z m657 -62
c-2 -13 -4 -3 -4 22 0 25 2 35 4 23 2 -13 2 -33 0 -45z m-503 27 c3 -8 1 -15
-4 -15 -6 0 -10 7 -10 15 0 8 2 15 4 15 2 0 6 -7 10 -15z m456 -38 c0 -6 -9 0
-20 13 -11 13 -20 28 -20 33 0 6 9 0 20 -13 11 -13 20 -28 20 -33z m14 41 c-3
-4 -11 -5 -19 -1 -21 7 -19 12 4 10 11 0 18 -5 15 -9z m68 -40 c2 -21 0 -38
-4 -38 -4 0 -8 21 -7 48 1 52 6 48 11 -10z m-886 21 c17 -19 19 -19 31 -3 20
28 15 6 -9 -37 -11 -21 -28 -41 -37 -44 -10 -4 -8 2 7 18 12 13 22 27 22 31 0
13 -25 33 -38 30 -8 -2 -8 -1 -1 3 8 4 7 8 -2 14 -8 5 -9 9 -3 9 6 0 19 -9 30
-21z m1152 -43 c17 -27 32 -61 32 -76 0 -15 9 -35 21 -46 35 -31 51 -84 53
-169 l1 -80 -89 -3 c-163 -5 -319 39 -357 101 -10 17 -17 32 -16 33 1 2 29 -4
62 -12 33 -7 71 -13 85 -13 14 1 -1 7 -32 13 -86 19 -115 34 -123 63 -11 46
13 59 88 45 78 -14 131 -15 77 -1 -103 27 -110 30 -110 49 0 10 12 28 28 40
23 19 36 21 92 18 36 -3 87 -14 113 -26 49 -22 60 -15 32 22 -19 25 -20 99 -2
94 6 -2 27 -26 45 -52z m-318 29 c0 -8 -2 -15 -4 -15 -2 0 -6 7 -10 15 -3 8
-1 15 4 15 6 0 10 -7 10 -15z m-883 -17 c-3 -8 -6 -5 -6 6 -1 11 2 17 5 13 3
-3 4 -12 1 -19z m507 -53 c11 -8 17 -18 13 -21 -3 -4 -13 1 -22 10 -24 24 -54
38 -65 31 -16 -10 -11 -28 5 -21 8 3 15 1 15 -4 0 -16 -19 -21 -33 -8 -11 10
-11 17 2 39 l15 27 26 -19 c14 -10 34 -25 44 -34z m323 3 c-2 -13 -4 -5 -4 17
-1 22 1 32 4 23 2 -10 2 -28 0 -40z m-817 12 c0 -5 -2 -10 -4 -10 -3 0 -8 5
-11 10 -3 6 -1 10 4 10 6 0 11 -4 11 -10z m18 -56 c11 -8 12 -13 3 -18 -16
-10 -18 -7 -25 29 -3 17 -3 23 1 15 3 -8 13 -20 21 -26z m416 -19 c-16 -13
-25 -27 -22 -30 9 -9 55 23 62 42 5 13 9 13 22 2 13 -10 17 -10 24 1 5 8 12
11 16 7 4 -3 1 -14 -6 -22 -8 -10 -17 -12 -23 -6 -11 11 -37 4 -37 -11 0 -5 9
-7 19 -3 11 3 22 1 26 -5 3 -5 -1 -10 -9 -10 -9 0 -16 -5 -16 -12 0 -6 -8 -4
-19 6 -18 16 -20 16 -46 -10 -25 -25 -27 -25 -21 -6 8 25 -11 31 -20 8 -3 -8
-11 -13 -19 -10 -7 3 -22 -10 -34 -31 -16 -28 -19 -41 -11 -56 12 -22 -2 -26
-20 -4 -7 9 -9 23 -4 37 4 13 7 26 6 30 -1 4 5 5 13 2 8 -4 15 -2 15 4 0 6 -5
12 -11 14 -7 2 -2 17 13 39 21 32 48 42 48 18 0 -4 -7 -6 -15 -3 -17 7 -20 -7
-4 -23 7 -7 22 2 52 33 23 24 44 39 45 33 2 -5 -9 -21 -24 -34z m-367 23 c0
-7 3 -44 6 -83 6 -68 5 -68 -4 -17 -6 28 -15 52 -20 52 -5 0 -9 5 -9 11 0 5 5
7 10 4 6 -3 10 -2 10 4 0 5 -5 13 -11 17 -8 4 -7 9 2 15 8 5 14 9 15 9 0 0 1
-6 1 -12z m343 -8 c0 -5 -4 -10 -10 -10 -5 0 -10 5 -10 10 0 6 5 10 10 10 6 0
10 -4 10 -10z m437 -12 c-3 -8 -6 -5 -6 6 -1 11 2 17 5 13 3 -3 4 -12 1 -19z
m491 -24 c58 -64 77 -165 50 -258 -13 -48 -32 -73 -70 -92 -33 -17 -32 -18
-13 36 20 56 20 193 0 252 -9 25 -25 55 -37 68 -17 18 -18 24 -7 31 25 15 37
10 77 -37z m-743 -21 c22 -28 33 -53 30 -64 -4 -11 -1 -16 11 -15 33 2 39 -28
18 -93 -20 -64 -28 -74 -37 -41 -3 10 0 18 5 17 11 -2 20 24 20 60 0 13 4 20
9 17 5 -3 9 2 9 10 0 8 -4 17 -9 20 -8 6 -20 -21 -25 -56 -3 -24 -12 -32 -21
-19 -3 6 -2 11 2 11 5 0 9 16 10 35 1 19 -3 35 -8 35 -5 0 -9 -5 -9 -12 0 -6
-6 -3 -14 8 -13 16 -13 21 0 35 8 8 14 22 14 30 -1 9 -7 6 -20 -9 l-19 -23
-22 20 c-12 11 -27 17 -33 14 -6 -4 1 6 17 22 15 15 27 32 27 36 0 17 9 9 45
-38z m-570 8 c-3 -5 3 -11 12 -13 15 -3 14 -5 -4 -10 -18 -5 -23 -2 -23 13 0
10 5 19 11 19 5 0 8 -4 4 -9z m517 -68 c10 -9 23 -31 30 -49 6 -18 16 -30 21
-27 6 3 7 1 3 -5 -13 -21 -36 -13 -36 12 0 33 -34 73 -76 86 -33 11 -38 10
-64 -15 -15 -14 -34 -43 -42 -64 -14 -34 -14 -40 1 -58 9 -11 25 -25 36 -31
11 -6 15 -12 8 -12 -20 0 -70 49 -75 75 -3 13 -2 22 2 20 17 -10 20 29 4 44
-15 15 -16 14 -10 -9 6 -22 6 -23 -5 -6 -10 16 -9 22 6 32 9 7 14 17 10 23 -8
15 28 14 42 0 8 -8 17 -6 34 9 20 20 24 20 58 6 19 -8 43 -22 53 -31z m-482 2
c0 -8 -2 -15 -4 -15 -2 0 -6 7 -10 15 -3 8 -1 15 4 15 6 0 10 -7 10 -15z m441
-12 c15 -9 33 -30 38 -45 12 -35 4 -37 -9 -3 -5 14 -16 25 -24 25 -7 0 -16 7
-20 15 -8 21 -30 19 -51 -5 -15 -17 -16 -24 -7 -46 15 -31 15 -31 -2 -31 -8 0
-11 8 -8 19 2 10 -1 18 -7 18 -18 0 -13 15 14 44 28 31 37 32 76 9z m-616 -46
c-35 -61 -47 -135 -35 -215 14 -86 31 -115 82 -141 l43 -21 -32 0 c-24 0 -41
9 -67 38 -52 54 -69 106 -64 194 3 62 9 82 38 131 19 31 41 57 48 57 9 0 5
-14 -13 -43z m129 21 c15 -20 13 -23 -22 -46 -59 -39 -61 -46 -5 -18 56 28
105 34 120 14 28 -36 23 -48 -38 -93 -71 -52 -68 -58 8 -15 29 17 55 30 58 30
3 0 5 -17 5 -37 0 -30 -8 -44 -45 -79 -50 -49 -106 -80 -149 -85 -44 -6 -68
41 -74 140 -5 89 8 148 43 185 31 33 77 35 99 4z m451 -20 c5 4 5 1 1 -6 -6
-10 -11 -10 -22 -1 -8 6 -14 14 -14 16 0 3 6 0 13 -6 8 -6 18 -7 22 -3z m-160
-18 c4 -6 11 -8 16 -5 5 4 9 -4 8 -17 0 -13 -3 -17 -6 -10 -9 23 -19 12 -20
-23 -1 -19 3 -32 8 -29 5 3 9 13 9 22 0 12 3 13 12 4 9 -9 9 -18 0 -37 -14
-30 1 -33 21 -4 10 13 17 16 22 10 3 -6 0 -14 -8 -17 -8 -3 -18 -15 -21 -27
-5 -20 -10 -16 -41 30 -40 60 -40 60 -18 85 16 18 16 18 -2 12 -13 -5 -16 -4
-11 4 9 15 23 15 31 2z m186 -13 c-13 -13 -26 -3 -16 12 3 6 11 8 17 5 6 -4 6
-10 -1 -17z m59 -24 c7 6 4 -3 -6 -21 -27 -47 -46 -63 -64 -52 -13 8 -13 10
-1 10 17 0 51 29 51 43 0 6 -9 2 -20 -8 -18 -17 -20 -17 -14 -2 3 9 11 17 16
17 6 0 4 8 -3 18 -13 16 -13 16 7 0 16 -14 23 -15 34 -5z m-110 -29 c0 -2 -9
0 -20 6 -11 6 -20 13 -20 16 0 2 9 0 20 -6 11 -6 20 -13 20 -16z m160 19 c-1
-18 -30 -44 -41 -38 -8 6 -5 13 12 26 27 21 29 22 29 12z m-127 -18 c-3 -9 -8
-14 -10 -11 -3 3 -2 9 2 15 9 16 15 13 8 -4z m87 -45 c0 -5 -7 -10 -15 -12 -8
-2 -11 -8 -7 -14 10 -15 62 -27 62 -14 0 5 -4 10 -9 10 -5 0 -11 7 -14 14 -4
10 -1 13 9 9 7 -3 14 0 14 6 0 6 7 8 15 5 21 -8 19 -18 -10 -51 -14 -16 -25
-22 -25 -14 0 10 -3 11 -14 2 -11 -9 -15 -8 -20 5 -6 15 -8 15 -26 -1 -13 -12
-18 -25 -14 -38 4 -13 2 -17 -5 -13 -6 4 -11 16 -11 26 0 28 -14 32 -34 8 -15
-17 -16 -22 -5 -29 11 -7 10 -9 -3 -9 -28 0 -21 -16 18 -46 l35 -27 31 34 c16
19 25 25 19 14 -6 -11 -20 -31 -31 -43 l-20 -24 -59 57 c-33 32 -69 64 -80 71
-11 8 -18 21 -15 29 9 23 26 18 19 -5 -5 -14 -2 -18 7 -15 8 3 20 -5 28 -20
14 -27 36 -35 26 -10 -3 8 -1 15 4 15 6 0 10 5 10 11 0 6 -9 9 -20 6 -11 -3
-20 -1 -20 4 0 5 13 8 28 7 15 -1 34 2 41 6 8 5 16 4 20 -2 4 -7 12 -8 21 -1
12 7 12 11 2 17 -9 6 -6 12 12 22 14 7 23 18 19 23 -3 6 -1 7 5 3 7 -4 12 -11
12 -16z m-140 2 c14 -6 13 -9 -3 -25 -19 -19 -19 -18 -12 5 6 19 5 21 -6 11
-18 -18 -33 -16 -17 2 15 16 17 16 38 7z m478 -21 c8 -22 7 -31 -2 -34 -9 -4
-11 2 -8 19 2 14 0 24 -7 24 -6 0 -11 5 -11 10 0 21 19 9 28 -19z m-438 -11
c-29 -8 -40 -3 -21 10 8 4 21 5 30 2 12 -5 10 -8 -9 -12z m467 -27 c-3 -10 -5
-2 -5 17 0 19 2 27 5 18 2 -10 2 -26 0 -35z m-58 17 c-6 -5 -9 -15 -6 -24 4
-9 2 -16 -3 -16 -6 0 -10 13 -10 30 0 23 4 28 16 23 12 -4 13 -8 3 -13z m261
-12 c0 -7 9 -87 20 -178 11 -91 20 -186 20 -212 0 -46 -1 -48 -29 -48 -17 0
-32 3 -34 8 -9 14 -49 393 -43 407 3 8 15 15 26 15 11 0 20 5 20 10 0 6 5 10
10 10 6 0 10 -6 10 -12z m-585 -29 c4 -6 13 -8 21 -5 8 3 11 0 7 -9 -4 -11
-10 -12 -23 -5 -23 12 -35 30 -21 30 5 0 13 -5 16 -11z m355 -9 c-20 -13 -33
-13 -25 0 3 6 14 10 23 10 15 0 15 -2 2 -10z m67 -47 c-3 -10 -5 -4 -5 12 0
17 2 24 5 18 2 -7 2 -21 0 -30z m-487 12 c-7 -9 -15 -13 -17 -11 -7 7 7 26 19
26 6 0 6 -6 -2 -15z m60 12 c0 -7 -37 -47 -44 -47 -3 0 -6 7 -6 16 0 8 5 12
10 9 6 -3 13 1 16 9 5 14 24 23 24 13z m378 -39 c1 -29 -1 -38 -7 -29 -5 8 -7
21 -3 29 3 10 1 13 -6 8 -16 -9 -15 7 0 22 7 7 13 12 13 12 1 0 2 -19 3 -42z
m-52 -23 c-20 -31 -20 -35 2 -36 13 0 12 -2 -5 -9 -13 -5 -23 -18 -23 -29 0
-11 -5 -23 -11 -26 -6 -4 -8 -14 -4 -24 5 -13 4 -14 -6 -3 -7 6 -16 12 -20 12
-12 0 -40 -63 -32 -69 5 -3 9 -13 11 -21 3 -12 1 -13 -9 -2 -18 16 -32 15 -26
-2 4 -10 1 -13 -9 -9 -15 5 -20 23 -6 23 5 0 16 16 25 35 9 18 27 41 41 50 20
13 31 33 41 75 0 3 7 16 15 30 8 14 13 34 12 45 -2 19 -2 19 9 2 8 -14 7 -24
-5 -42z m-749 -17 c-3 -8 -6 -5 -6 6 -1 11 2 17 5 13 3 -3 4 -12 1 -19z m52
-93 c20 -21 55 -85 47 -85 -3 0 -1 -13 4 -30 5 -18 5 -30 -1 -30 -5 0 -9 4 -9
10 0 5 -7 7 -15 3 -10 -3 -15 0 -13 8 2 8 -2 13 -8 12 -8 -1 -10 6 -6 19 l5
22 8 -22 c5 -12 13 -22 19 -22 13 0 13 -2 -6 53 -17 51 -38 65 -29 20 6 -26 5
-26 -11 5 -9 17 -21 32 -27 32 -7 0 -7 4 1 12 17 17 15 28 -5 22 -17 -5 -17
-5 0 9 9 8 18 29 19 48 1 23 3 18 5 -16 3 -30 12 -58 22 -70z m778 68 c-3 -10
-5 -4 -5 12 0 17 2 24 5 18 2 -7 2 -21 0 -30z m30 0 c-3 -10 -5 -4 -5 12 0 17
2 24 5 18 2 -7 2 -21 0 -30z m-902 -109 c24 -202 27 -261 5 -124 -23 149 -35
267 -26 259 3 -3 13 -64 21 -135z m12 104 c-3 -7 -5 -2 -5 12 0 14 2 19 5 13
2 -7 2 -19 0 -25z m43 2 c0 -5 -5 -10 -11 -10 -5 0 -7 5 -4 10 3 6 8 10 11 10
2 0 4 -4 4 -10z m409 -24 c-3 -3 -11 5 -18 17 -13 21 -12 21 5 5 10 -10 16
-20 13 -22z m-23 -11 c3 -17 -12 -20 -21 -5 -7 12 4 34 13 25 3 -3 7 -12 8
-20z m369 7 c-3 -3 -11 0 -18 7 -9 10 -8 11 6 5 10 -3 15 -9 12 -12z m42 -14
c-3 -7 -5 -2 -5 12 0 14 2 19 5 13 2 -7 2 -19 0 -25z m30 -30 c-2 -13 -4 -5
-4 17 -1 22 1 32 4 23 2 -10 2 -28 0 -40z m-927 -126 c11 -84 24 -160 27 -170
4 -12 3 -14 -5 -7 -14 13 -58 286 -53 329 3 28 12 -15 31 -152z m67 121 c-3
-10 -5 -4 -5 12 0 17 2 24 5 18 2 -7 2 -21 0 -30z m433 12 c-7 -8 -16 -15 -21
-15 -5 0 -1 8 9 18 20 22 31 19 12 -3z m373 8 c3 -5 -6 -9 -20 -10 -19 -1 -22
1 -12 8 17 11 26 11 32 2z m-32 -40 c13 -15 12 -15 -8 -4 -24 12 -29 21 -14
21 5 0 15 -7 22 -17z m77 -63 c0 -22 -1 -22 -8 5 -4 17 -8 41 -8 55 0 22 1 22
8 -5 4 -16 8 -41 8 -55z m-838 10 c4 -22 3 -40 -1 -40 -5 0 -9 13 -9 29 0 16
-3 38 -7 48 -3 10 -3 15 2 11 4 -4 11 -25 15 -48z m800 35 c-7 -9 -15 -13 -19
-10 -3 3 1 10 9 15 21 14 24 12 10 -5z m57 -7 c-3 -8 -6 -5 -6 6 -1 11 2 17 5
13 3 -3 4 -12 1 -19z m-117 -3 c10 -12 10 -15 -4 -15 -9 0 -16 5 -16 11 0 7
-10 9 -25 7 -13 -3 -22 -1 -19 3 9 14 51 10 64 -6z m-556 -50 c4 -13 0 -11
-21 5 -20 16 -28 18 -35 8 -5 -9 -8 -6 -8 10 0 22 1 22 29 8 16 -9 31 -22 35
-31z m526 31 c0 -2 -7 -7 -16 -10 -8 -3 -12 -2 -9 4 6 10 25 14 25 6z m80 -29
c10 -20 10 -20 -3 -4 -8 9 -20 17 -26 17 -7 0 -9 5 -6 10 8 13 22 4 35 -23z
m-40 -4 c0 -2 -8 -3 -18 -1 -11 2 -26 -3 -35 -11 -10 -7 -17 -10 -17 -6 0 15
33 32 52 27 10 -2 18 -6 18 -9z m-139 -30 c-4 -16 -15 -29 -24 -29 -13 -2 -14
-1 -2 3 8 2 15 12 15 22 0 15 8 31 16 31 1 0 -1 -12 -5 -27z m53 11 c3 -8 2
-12 -4 -9 -6 3 -10 10 -10 16 0 14 7 11 14 -7z m-424 -38 c0 -6 -7 -3 -14 6
-10 14 -24 17 -57 14 -33 -4 -40 -2 -26 6 10 5 25 7 32 4 8 -3 17 -1 21 5 7
12 44 -18 44 -35z m556 1 c12 -3 6 -5 -14 -6 -21 -1 -31 3 -27 9 4 6 3 17 -2
23 -4 7 -1 5 8 -4 8 -9 24 -19 35 -22z m-784 -3 c2 -19 1 -37 -2 -39 -3 -2 -7
14 -8 36 -3 49 4 52 10 3z m639 19 c13 -16 12 -17 -3 -4 -10 7 -18 15 -18 17
0 8 8 3 21 -13z m79 7 c13 -8 13 -10 -2 -10 -9 0 -20 5 -23 10 -8 13 5 13 25
0z m-678 -25 c0 -5 -5 -10 -11 -11 -8 -2 -7 -1 0 3 8 4 7 8 -2 15 -11 8 -11 9
-1 6 8 -2 14 -8 14 -13z m38 5 c0 -5 -5 -10 -11 -10 -5 0 -7 5 -4 10 3 6 8 10
11 10 2 0 4 -4 4 -10z m328 -10 c-13 -21 -54 -37 -65 -26 -4 3 3 6 15 6 12 0
26 9 32 20 6 11 15 20 20 20 6 0 5 -9 -2 -20z m439 14 c-3 -3 -12 -4 -19 -1
-8 3 -5 6 6 6 11 1 17 -2 13 -5z m-642 -14 c3 -5 2 -10 -4 -10 -5 0 -13 5 -16
10 -3 6 -2 10 4 10 5 0 13 -4 16 -10z m-22 -20 c9 -11 12 -20 7 -20 -6 0 -13
7 -16 15 -4 8 -13 15 -22 15 -12 0 -13 -3 -4 -12 21 -21 13 -32 -8 -13 -16 14
-17 20 -8 27 20 12 32 10 51 -12z m520 13 c-7 -2 -19 -2 -25 0 -7 3 -2 5 12 5
14 0 19 -2 13 -5z m-626 -15 c2 6 10 12 16 12 8 0 8 -3 0 -11 -6 -6 -10 -17
-9 -23 2 -6 1 -7 -2 -3 -2 4 -10 3 -18 -4 -8 -7 -17 -9 -21 -5 -3 3 -1 6 5 6
7 0 12 5 12 10 0 7 -8 7 -22 -1 -23 -12 -23 -12 -4 10 15 16 22 19 29 9 7 -10
10 -10 14 0z m530 6 c-3 -3 -12 -4 -19 -1 -8 3 -5 6 6 6 11 1 17 -2 13 -5z
m-70 -10 c-3 -3 -12 -4 -19 -1 -8 3 -5 6 6 6 11 1 17 -2 13 -5z m-417 -14 c0
-5 -2 -10 -4 -10 -3 0 -8 5 -11 10 -3 6 -1 10 4 10 6 0 11 -4 11 -10z m183 3
c-13 -2 -33 -2 -45 0 -13 2 -3 4 22 4 25 0 35 -2 23 -4z m150 0 c-7 -2 -19 -2
-25 0 -7 3 -2 5 12 5 14 0 19 -2 13 -5z m-246 -29 c-3 -3 -12 -4 -19 -1 -8 3
-5 6 6 6 11 1 17 -2 13 -5z m-104 -11 c-7 -2 -21 -2 -30 0 -10 3 -4 5 12 5 17
0 24 -2 18 -5z m-70 -10 c-7 -2 -19 -2 -25 0 -7 3 -2 5 12 5 14 0 19 -2 13 -5z
m810 -60 c-13 -2 -33 -2 -45 0 -13 2 -3 4 22 4 25 0 35 -2 23 -4z m451 -25 c7
-35 25 -177 40 -328 9 -80 22 -155 34 -185 51 -131 86 -315 52 -279 -13 15
-102 344 -115 429 -7 44 -14 71 -15 60 -3 -30 -18 40 -22 100 -1 28 -7 54 -13
58 -6 4 -1 7 10 5 14 -2 19 2 16 12 -11 45 -13 150 -3 150 7 0 14 -10 16 -22z
m-1241 -53 c-1 -6 -29 -75 -61 -155 -33 -80 -85 -211 -116 -291 -50 -127 -60
-146 -77 -142 -10 3 -19 12 -19 19 0 28 147 400 221 557 9 20 19 27 33 25 12
-2 20 -8 19 -13z m1194 -11 c-3 -3 -12 -4 -19 -1 -8 3 -5 6 6 6 11 1 17 -2 13
-5z m20 -40 c-3 -3 -12 -4 -19 -1 -8 3 -5 6 6 6 11 1 17 -2 13 -5z m-757 -316
c-160 -289 -262 -458 -272 -452 -13 8 -1 38 41 102 21 31 77 131 126 222 139
261 195 354 207 342 7 -7 -25 -74 -102 -214z m222 -73 c28 -77 68 -183 90
-235 21 -52 47 -127 58 -167 31 -119 60 -160 137 -194 l42 -19 -23 -48 c-12
-26 -32 -63 -44 -82 -30 -47 -45 -107 -39 -152 3 -23 1 -38 -7 -40 -31 -9
-946 4 -946 13 0 5 9 22 20 37 11 15 27 59 36 97 9 39 26 103 38 144 19 66 25
76 49 82 44 12 58 28 99 116 21 46 59 118 84 160 26 42 102 179 171 303 69
124 128 229 131 234 6 10 34 -58 104 -249z m114 -154 c52 -129 93 -236 91
-238 -2 -1 -14 8 -26 21 -25 27 -99 204 -158 381 -88 262 -56 206 93 -164z
m-970 -37 c104 -34 207 -83 252 -121 l22 -18 -21 -25 c-19 -23 -19 -23 -9 -2
6 12 8 27 4 33 -11 18 -187 97 -246 110 -53 11 -60 10 -78 -6 -12 -10 -18 -25
-15 -32 2 -8 1 -12 -4 -9 -4 3 -20 -17 -35 -44 -32 -58 -46 -63 -46 -16 0 48
43 166 60 166 3 0 55 -16 116 -36z m1603 -161 c17 -84 14 -109 -15 -140 -15
-15 -21 -20 -14 -10 7 9 8 17 3 17 -6 0 -13 17 -17 39 -9 57 -27 68 -72 42
-20 -12 -71 -31 -113 -43 -62 -17 -92 -20 -166 -15 -49 4 -101 9 -113 13 -24
7 -24 6 7 -55 17 -33 28 -61 23 -61 -18 0 -64 60 -82 109 -25 64 -25 79 -2 58
46 -42 166 -63 265 -47 107 17 173 46 225 99 26 27 50 49 53 49 3 1 11 -24 18
-55z m-1249 -68 c0 -24 -56 -115 -71 -115 -14 0 -11 9 11 37 21 27 30 120 10
108 -5 -3 -7 0 -4 8 3 8 1 18 -5 22 -6 3 -11 11 -11 18 0 6 16 -4 35 -23 19
-19 35 -44 35 -55z m-350 22 c14 -1 24 -7 23 -14 -2 -7 16 -25 40 -41 55 -37
67 -44 67 -38 0 2 -22 19 -50 37 -27 18 -48 35 -45 37 9 9 115 -70 108 -81 -3
-5 -1 -7 4 -4 12 7 36 -16 28 -26 -3 -4 -2 -5 2 -2 3 3 14 -2 24 -11 16 -15
16 -18 -3 -75 -11 -32 -21 -59 -22 -59 -2 0 -18 29 -36 65 -45 88 -61 102
-104 87 -18 -7 -35 -12 -39 -12 -3 0 -19 26 -34 57 -19 39 -36 60 -55 67 -44
17 -33 29 20 22 26 -4 58 -8 72 -9z m-240 -27 c0 -5 -24 -10 -54 -10 -30 0
-61 -3 -70 -6 -9 -3 -16 -1 -16 4 0 14 24 19 88 21 29 0 52 -3 52 -9z m128 -9
c8 -5 -8 -6 -40 -4 -73 6 -83 11 -23 12 28 0 56 -3 63 -8z m-220 -55 c78 -40
281 -208 274 -229 -1 -5 2 -6 8 -2 6 4 39 -11 73 -33 34 -23 74 -46 90 -53 15
-7 27 -20 27 -31 0 -24 -6 -23 -36 7 -14 14 -30 25 -36 25 -14 0 -127 68 -155
93 -12 11 -20 24 -16 30 3 6 1 7 -6 3 -7 -5 -39 18 -80 56 -78 73 -169 123
-221 123 -50 0 -90 -28 -90 -63 -1 -23 -2 -24 -11 -10 -21 38 43 108 99 108
18 0 54 -11 80 -24z m1930 -98 c26 -57 36 -118 26 -170 l-8 -43 -7 45 c-4 25
-8 66 -8 93 -1 51 -6 56 -28 30 -9 -12 -9 -7 2 16 12 24 14 36 6 44 -6 6 -11
15 -11 19 0 17 9 6 28 -34z m-68 -22 c0 -34 -14 -40 -52 -20 l-33 17 35 13
c49 17 50 17 50 -10z m-327 -48 c-18 -18 -35 -30 -38 -27 -9 10 35 59 53 59
12 0 8 -8 -15 -32z m-1033 -62 c0 -34 -11 -86 -19 -86 -3 0 -4 25 -3 55 4 53
22 80 22 31z m980 -38 c-11 -18 -25 -50 -31 -70 -5 -21 -14 -38 -19 -38 -16 0
-12 21 14 76 20 44 30 55 53 63 2 1 -6 -14 -17 -31z m20 -155 c74 -24 296 -25
355 -2 22 9 49 20 60 24 20 8 20 8 1 -14 -11 -12 -51 -31 -89 -43 -59 -17 -86
-20 -176 -15 -117 6 -206 30 -223 60 -8 15 -7 18 4 14 7 -3 38 -14 68 -24z
m-2730 -9 c0 -8 -2 -14 -4 -14 -2 0 -11 -3 -20 -6 -19 -7 -22 16 -4 34 13 13
28 7 28 -14z m12 -46 c-6 -6 -15 -8 -19 -4 -4 4 -1 11 7 16 19 12 27 3 12 -12z
m-172 -18 c20 -15 23 -21 12 -32 -10 -10 -18 -6 -44 20 -28 28 -30 32 -13 32
11 0 31 -9 45 -20z m144 -26 c20 -30 18 -78 -4 -81 -8 -1 -27 16 -42 39 -24
39 -25 43 -10 55 25 19 38 16 56 -13z m109 -34 c42 -49 48 -86 29 -172 -7 -35
-13 -78 -13 -96 1 -40 -17 -39 -37 1 -16 33 -30 34 -41 5 -7 -18 -9 -12 -15
33 -4 31 -14 77 -21 104 -14 45 -14 48 8 65 18 15 22 28 21 69 0 44 1 49 17
41 9 -6 33 -28 52 -50z m-293 -29 c-11 -14 -28 -37 -39 -51 l-20 -25 -7 32
c-3 18 -7 34 -8 35 0 2 9 20 22 42 l23 39 24 -23 c24 -23 24 -23 5 -49z m155
-57 c24 -52 40 -126 49 -222 4 -43 3 -53 -9 -49 -7 3 -29 9 -48 12 -33 7 -35
9 -54 85 l-19 79 23 6 c23 5 33 25 13 25 -5 0 -10 7 -10 15 0 9 -7 30 -17 48
-14 28 -17 30 -23 13 -6 -19 -7 -19 -14 0 -7 18 -8 18 -26 -3 -10 -13 -21 -23
-24 -23 -8 0 41 79 67 107 l20 23 25 -33 c13 -17 35 -55 47 -83z m975 66 c-8
-6 -24 -15 -35 -21 -16 -8 -15 -6 4 10 13 12 28 21 35 21 6 0 4 -5 -4 -10z
m39 -76 c-14 -17 -32 -17 -99 -3 -41 9 -49 13 -40 24 16 19 89 23 123 7 22
-11 26 -17 16 -28z m-89 -56 c-12 -10 -32 -18 -44 -18 -16 0 -18 -2 -7 -9 11
-7 9 -11 -9 -21 -25 -14 -135 -95 -165 -123 -11 -10 -51 -39 -90 -65 -38 -25
-72 -49 -75 -52 -3 -3 -34 -30 -70 -59 -36 -30 -75 -65 -87 -78 -33 -35 -90
-56 -131 -48 l-35 6 103 97 c57 53 124 113 149 132 25 19 52 41 59 48 8 7 18
10 23 7 5 -4 6 0 4 8 -4 8 40 48 122 109 70 53 134 97 142 100 8 2 41 0 74 -6
l60 -9 -23 -19z m-916 -262 l48 -44 -7 -61 c-6 -51 -10 -61 -26 -61 -21 0 -22
8 -9 65 8 37 7 42 -19 62 -27 21 -59 84 -43 83 4 -1 29 -20 56 -44z m51 6 c-8
-8 -25 10 -19 20 4 6 9 5 15 -3 4 -7 6 -15 4 -17z m153 -138 c-4 -3 -12 5 -18
18 -12 22 -12 22 6 6 10 -10 15 -20 12 -24z m20 -108 c-2 -4 8 -14 22 -21 32
-18 16 -19 -34 -1 -35 12 -37 15 -20 24 21 12 37 11 32 -2z m2 -56 c16 -6 1
-7 -40 -3 -36 3 -67 7 -69 9 -8 8 84 2 109 -6z"/>
<path d="M2428 5813 c7 -3 16 -2 19 1 4 3 -2 6 -13 5 -11 0 -14 -3 -6 -6z"/>
<path d="M2498 5813 c6 -2 18 -2 25 0 6 3 1 5 -13 5 -14 0 -19 -2 -12 -5z"/>
<path d="M2338 5803 c7 -3 16 -2 19 1 4 3 -2 6 -13 5 -11 0 -14 -3 -6 -6z"/>
<path d="M2598 5803 c7 -3 16 -2 19 1 4 3 -2 6 -13 5 -11 0 -14 -3 -6 -6z"/>
<path d="M2268 5793 c7 -3 16 -2 19 1 4 3 -2 6 -13 5 -11 0 -14 -3 -6 -6z"/>
<path d="M2477 5783 c-4 -3 -7 -11 -7 -17 0 -6 5 -5 12 2 6 6 9 14 7 17 -3 3
-9 2 -12 -2z"/>
<path d="M2305 5760 c-10 -11 -16 -22 -14 -24 2 -2 12 7 22 20 22 29 17 32 -8
4z"/>
<path d="M2555 5769 c-11 -17 1 -21 15 -4 8 9 8 15 2 15 -6 0 -14 -5 -17 -11z"/>
<path d="M2641 5758 c-14 -23 -14 -23 8 -4 22 20 25 26 13 26 -4 0 -13 -10
-21 -22z"/>
<path d="M2237 5764 c-6 -10 9 -42 16 -34 3 3 1 14 -3 24 -3 11 -9 15 -13 10z"/>
<path d="M2707 5753 c-4 -3 -7 -13 -7 -22 1 -13 3 -13 11 2 11 19 8 33 -4 20z"/>
<path d="M2745 5750 c-3 -5 -1 -10 4 -10 6 0 11 5 11 10 0 6 -2 10 -4 10 -3 0
-8 -4 -11 -10z"/>
<path d="M2165 5730 c3 -5 10 -10 16 -10 5 0 9 5 9 10 0 6 -7 10 -16 10 -8 0
-12 -4 -9 -10z"/>
<path d="M2796 5723 c-6 -14 -5 -15 5 -6 7 7 10 15 7 18 -3 3 -9 -2 -12 -12z"/>
<path d="M2835 5720 c-3 -5 -1 -10 4 -10 6 0 11 5 11 10 0 6 -2 10 -4 10 -3 0
-8 -4 -11 -10z"/>
<path d="M2015 5710 c-3 -6 1 -7 9 -4 18 7 21 14 7 14 -6 0 -13 -4 -16 -10z"/>
<path d="M2686 5693 c-6 -14 -5 -15 5 -6 7 7 10 15 7 18 -3 3 -9 -2 -12 -12z"/>
<path d="M2875 5684 c-23 -36 -15 -37 13 -3 13 16 19 29 14 29 -5 0 -17 -12
-27 -26z"/>
<path d="M2971 5706 c2 -2 15 -9 29 -15 24 -11 24 -11 6 3 -16 13 -49 24 -35
12z"/>
<path d="M2767 5670 c-3 -11 -3 -20 -1 -20 2 0 8 9 14 20 6 11 7 20 2 20 -6 0
-12 -9 -15 -20z"/>
<path d="M2930 5680 c-8 -5 -12 -12 -9 -15 4 -3 12 1 19 10 14 17 11 19 -10 5z"/>
<path d="M2816 5663 c-6 -14 -5 -15 5 -6 7 7 10 15 7 18 -3 3 -9 -2 -12 -12z"/>
<path d="M2006 5644 c-5 -14 -4 -15 9 -4 17 14 19 20 6 20 -5 0 -12 -7 -15
-16z"/>
<path d="M2710 5651 c0 -5 5 -13 10 -16 6 -3 10 -2 10 4 0 5 -4 13 -10 16 -5
3 -10 2 -10 -4z"/>
<path d="M3005 5650 c-3 -6 1 -7 9 -4 18 7 21 14 7 14 -6 0 -13 -4 -16 -10z"/>
<path d="M3046 5625 c-3 -8 -1 -15 4 -15 6 0 10 7 10 15 0 8 -2 15 -4 15 -2 0
-6 -7 -10 -15z"/>
<path d="M1957 5623 c-4 -3 -7 -11 -7 -17 0 -6 5 -5 12 2 6 6 9 14 7 17 -3 3
-9 2 -12 -2z"/>
<path d="M2926 5604 c-5 -14 -4 -15 9 -4 17 14 19 20 6 20 -5 0 -12 -7 -15
-16z"/>
<path d="M3087 5613 c-4 -3 -7 -11 -7 -17 0 -6 5 -5 12 2 6 6 9 14 7 17 -3 3
-9 2 -12 -2z"/>
<path d="M2166 5596 c4 -11 1 -22 -7 -27 -11 -7 -11 -9 3 -9 24 0 30 14 13 36
-14 18 -15 18 -9 0z"/>
<path d="M2445 5600 c-3 -5 -1 -10 4 -10 6 0 11 5 11 10 0 6 -2 10 -4 10 -3 0
-8 -4 -11 -10z"/>
<path d="M2530 5600 c-9 -6 -10 -10 -3 -10 6 0 15 5 18 10 8 12 4 12 -15 0z"/>
<path d="M2703 5588 c-2 -18 0 -20 7 -8 12 18 13 30 2 30 -4 0 -9 -10 -9 -22z"/>
<path d="M2348 5593 c7 -3 16 -2 19 1 4 3 -2 6 -13 5 -11 0 -14 -3 -6 -6z"/>
<path d="M3020 5590 c0 -5 5 -10 10 -10 6 0 10 5 10 10 0 6 -4 10 -10 10 -5 0
-10 -4 -10 -10z"/>
<path d="M3194 5591 c7 -11 46 -35 46 -28 0 3 -12 12 -26 22 -15 9 -23 12 -20
6z"/>
<path d="M3146 5575 c-3 -8 -1 -15 4 -15 6 0 10 7 10 15 0 8 -2 15 -4 15 -2 0
-6 -7 -10 -15z"/>
<path d="M2950 5565 c-8 -9 -8 -15 -2 -15 12 0 26 19 19 26 -2 2 -10 -2 -17
-11z"/>
<path d="M2816 5545 c4 -8 8 -15 10 -15 2 0 4 7 4 15 0 8 -4 15 -10 15 -5 0
-7 -7 -4 -15z"/>
<path d="M2878 5553 c7 -3 16 -2 19 1 4 3 -2 6 -13 5 -11 0 -14 -3 -6 -6z"/>
<path d="M3107 5543 c-4 -3 -7 -11 -7 -17 0 -6 5 -5 12 2 6 6 9 14 7 17 -3 3
-9 2 -12 -2z"/>
<path d="M2906 5521 c-4 -7 -5 -15 -2 -18 9 -9 19 4 14 18 -4 11 -6 11 -12 0z"/>
<path d="M1870 5511 c0 -6 4 -13 10 -16 6 -3 7 1 4 9 -7 18 -14 21 -14 7z"/>
<path d="M3145 5510 c-3 -5 -2 -10 4 -10 5 0 13 5 16 10 3 6 2 10 -4 10 -5 0
-13 -4 -16 -10z"/>
<path d="M3052 5501 c4 -13 18 -16 19 -4 0 4 -5 9 -11 12 -7 2 -11 -2 -8 -8z"/>
<path d="M3051 5454 c0 -11 3 -14 6 -6 3 7 2 16 -1 19 -3 4 -6 -2 -5 -13z"/>
<path d="M3085 5420 c3 -5 8 -10 11 -10 2 0 4 5 4 10 0 6 -5 10 -11 10 -5 0
-7 -4 -4 -10z"/>
<path d="M3140 5415 c-7 -9 -10 -18 -7 -21 3 -3 10 4 17 15 13 25 8 27 -10 6z"/>
<path d="M3285 5409 c-4 -6 -5 -12 -2 -15 2 -3 7 2 10 11 7 17 1 20 -8 4z"/>
<path d="M3420 5416 c0 -2 8 -10 18 -17 15 -13 16 -12 3 4 -13 16 -21 21 -21
13z"/>
<path d="M3190 5385 c-13 -14 -19 -25 -14 -25 8 1 50 50 41 50 -2 0 -14 -11
-27 -25z"/>
<path d="M3265 5360 c-3 -5 -1 -10 4 -10 6 0 11 5 11 10 0 6 -2 10 -4 10 -3 0
-8 -4 -11 -10z"/>
<path d="M3200 5356 c0 -2 8 -10 18 -17 15 -13 16 -12 3 4 -13 16 -21 21 -21
13z"/>
<path d="M3355 5320 c-3 -5 -1 -10 4 -10 6 0 11 5 11 10 0 6 -2 10 -4 10 -3 0
-8 -4 -11 -10z"/>
<path d="M3480 5309 c0 -5 5 -7 10 -4 6 3 10 8 10 11 0 2 -4 4 -10 4 -5 0 -10
-5 -10 -11z"/>
<path d="M3420 5209 c0 -5 5 -7 10 -4 6 3 10 8 10 11 0 2 -4 4 -10 4 -5 0 -10
-5 -10 -11z"/>
<path d="M3460 5195 c0 -5 5 -17 10 -25 5 -8 10 -10 10 -5 0 6 -5 17 -10 25
-5 8 -10 11 -10 5z"/>
<path d="M2010 4927 c0 -2 15 -16 33 -33 l32 -29 -29 33 c-28 30 -36 37 -36
29z"/>
<path d="M2672 4731 c-34 -17 -72 -65 -72 -90 0 -12 3 -12 12 -3 22 22 27 12
11 -25 -19 -46 -13 -129 13 -173 19 -31 68 -60 103 -60 40 0 90 28 111 62 14
23 20 50 20 91 0 61 -9 87 -43 125 l-20 22 20 0 c22 0 68 -32 93 -64 8 -10 22
-40 31 -65 l16 -46 8 38 c13 65 -33 135 -116 178 -54 27 -143 32 -187 10z
m153 -92 c8 -26 -16 -54 -39 -46 -19 7 -21 38 -4 55 18 18 36 14 43 -9z"/>
<path d="M1971 4662 c-76 -38 -123 -141 -86 -187 11 -14 15 -15 13 -5 -3 27
12 74 33 100 l21 25 -6 -25 c-24 -97 -12 -174 33 -214 50 -46 138 -19 168 51
21 51 13 130 -17 173 -23 32 -23 32 -2 21 48 -26 13 26 -38 58 -43 26 -74 27
-119 3z m144 -112 c0 -16 -6 -26 -18 -28 -19 -4 -32 20 -23 44 9 25 41 13 41
-16z"/>
<path d="M3291 4558 l-33 -33 33 -27 33 -28 -31 -32 c-56 -61 -49 -88 23 -88
60 0 73 21 33 53 l-32 25 22 27 21 28 -20 34 c-11 19 -20 35 -20 37 0 1 12 2
27 1 20 0 33 -9 48 -32 25 -40 38 -43 24 -5 -15 39 -49 72 -74 72 -12 0 -36
-15 -54 -32z"/>
<path d="M2357 4383 c-12 -11 -8 -23 9 -23 8 0 12 4 9 10 -3 6 1 7 9 4 9 -3
16 -1 16 5 0 12 -32 15 -43 4z"/>
<path d="M2470 4295 c-19 -8 -70 -14 -112 -14 l-78 -1 0 -31 c0 -20 10 -40 29
-60 26 -25 37 -29 88 -29 81 0 125 24 137 73 8 32 7 41 -10 56 -17 17 -23 17
-54 6z m50 -51 c0 -8 -4 -14 -9 -14 -5 0 -8 -7 -7 -16 1 -18 -64 -44 -109 -43
-26 1 -25 2 10 9 55 10 97 28 90 39 -3 5 -1 12 4 16 6 3 7 13 4 22 -4 11 -3
14 5 9 7 -4 12 -14 12 -22z m-75 6 c-3 -5 -19 -10 -34 -10 -15 0 -36 -7 -47
-15 -26 -19 -42 -19 -22 1 23 23 116 44 103 24z m-28 -26 c-3 -3 -12 -4 -19
-1 -8 3 -5 6 6 6 11 1 17 -2 13 -5z m13 -24 c-8 -5 -19 -10 -25 -10 -5 0 -3 5
5 10 8 5 20 10 25 10 6 0 3 -5 -5 -10z"/>
<path d="M3087 3773 c-8 -10 -18 -31 -21 -48 l-6 -30 11 30 c6 17 18 38 27 48
8 9 13 17 10 17 -3 0 -12 -8 -21 -17z"/>
<path d="M2640 3470 c-12 -8 -12 -10 2 -15 20 -8 41 2 33 16 -8 11 -16 11 -35
-1z"/>
<path d="M2672 3441 c2 -7 7 -12 11 -12 12 1 9 15 -3 20 -7 2 -11 -2 -8 -8z"/>
<path d="M2182 3388 c-22 -22 -14 -48 13 -48 30 0 43 24 25 45 -15 18 -22 19
-38 3z"/>
<path d="M2230 3140 c0 -5 5 -10 10 -10 6 0 10 5 10 10 0 6 -4 10 -10 10 -5 0
-10 -4 -10 -10z"/>
<path d="M2439 3148 c-10 -19 0 -37 22 -38 7 0 19 25 19 40 0 19 -30 18 -41
-2z"/>
<path d="M2497 3093 c-4 -3 -7 -13 -7 -21 0 -12 3 -12 15 -2 8 7 15 16 15 21
0 11 -14 12 -23 2z"/>
<path d="M2264 3079 c-3 -6 -2 -15 4 -21 7 -7 14 -3 21 11 10 17 9 21 -3 21
-8 0 -18 -5 -22 -11z"/>
<path d="M2180 2959 c0 -5 5 -7 10 -4 6 3 10 8 10 11 0 2 -4 4 -10 4 -5 0 -10
-5 -10 -11z"/>
<path d="M2500 2879 c0 -5 5 -7 10 -4 6 3 10 8 10 11 0 2 -4 4 -10 4 -5 0 -10
-5 -10 -11z"/>
<path d="M2040 2621 c0 -5 5 -13 10 -16 6 -3 10 -2 10 4 0 5 -4 13 -10 16 -5
3 -10 2 -10 -4z"/>
<path d="M3297 2069 c4 -13 8 -18 11 -10 2 7 -1 18 -6 23 -8 8 -9 4 -5 -13z"/>
<path d="M3435 1400 c-3 -5 -2 -10 4 -10 5 0 13 5 16 10 3 6 2 10 -4 10 -5 0
-13 -4 -16 -10z"/>
<path d="M2057 1216 c-4 -10 -1 -13 8 -9 8 3 12 9 9 14 -7 12 -11 11 -17 -5z"/>
<path d="M281 554 c0 -11 3 -14 6 -6 3 7 2 16 -1 19 -3 4 -6 -2 -5 -13z"/>
<path d="M1128 563 c7 -3 16 -2 19 1 4 3 -2 6 -13 5 -11 0 -14 -3 -6 -6z"/>
<path d="M1010 496 c0 -2 7 -7 16 -10 8 -3 12 -2 9 4 -6 10 -25 14 -25 6z"/>
<path d="M995 470 c-3 -5 -1 -10 4 -10 6 0 11 5 11 10 0 6 -2 10 -4 10 -3 0
-8 -4 -11 -10z"/>
<path d="M879 393 c-13 -16 -12 -17 4 -4 9 7 17 15 17 17 0 8 -8 3 -21 -13z"/>
<path d="M5290 5921 c0 -6 25 -23 55 -38 44 -22 55 -32 55 -51 0 -26 -3 -26
-97 -6 -20 4 -33 3 -33 -4 0 -5 31 -18 70 -27 78 -19 85 -25 94 -78 20 -109
193 -179 326 -132 27 10 60 13 89 10 40 -5 53 -1 94 25 64 41 61 62 -12 72
-49 8 -151 53 -151 67 0 3 27 35 60 70 33 35 60 67 60 72 0 5 -44 9 -97 9 -76
0 -108 -5 -142 -20 l-43 -20 -34 30 c-43 37 -98 41 -139 8 -30 -23 -20 -24
-142 20 -7 2 -13 -1 -13 -7z m270 -26 c16 -9 33 -27 36 -40 6 -24 24 -35 24
-15 0 5 14 17 32 26 38 20 208 33 208 16 0 -13 -24 -22 -63 -23 -32 -1 -32 -1
-5 -8 l27 -6 -36 -43 c-36 -43 -36 -43 -87 -37 -59 8 -55 -4 7 -21 23 -7 85
-27 137 -45 52 -18 102 -35 110 -37 8 -3 -7 -10 -35 -16 -43 -10 -47 -13 -31
-22 15 -9 2 -12 -60 -13 -44 -1 -115 -3 -159 -4 -72 -2 -85 1 -128 26 -51 30
-95 96 -69 104 8 3 5 14 -13 35 -32 38 -33 81 0 113 28 29 63 32 105 10z"/>
<path d="M5480 5845 c0 -16 16 -20 24 -6 3 5 -1 11 -9 15 -9 3 -15 0 -15 -9z"/>
<path d="M1015 5892 c-62 -26 -112 -60 -143 -97 -22 -28 -35 -34 -70 -36 -38
-3 -47 1 -87 41 -24 24 -47 41 -51 37 -4 -3 10 -29 31 -58 27 -38 35 -57 30
-76 -6 -24 -6 -24 -56 21 -49 44 -69 55 -69 39 0 -5 27 -39 60 -78 64 -74 66
-77 74 -168 12 -148 146 -241 321 -223 68 7 211 48 239 69 25 18 15 47 -16 47
-34 0 -117 42 -167 84 -24 20 -53 43 -63 51 -19 12 -19 15 -4 59 9 26 16 80
16 120 0 40 7 93 15 116 27 76 17 84 -60 52z m36 -40 c-6 -12 -11 -43 -11 -69
0 -27 -5 -54 -12 -61 -9 -9 -9 -12 0 -12 7 0 12 -9 12 -20 0 -19 -23 -89 -40
-122 -7 -12 -5 -18 9 -23 10 -3 28 -17 41 -30 l24 -25 -50 5 -49 6 65 -24 c36
-14 94 -38 130 -56 36 -17 75 -31 88 -31 12 0 22 -4 22 -9 0 -14 -27 -21 -83
-22 -39 -1 -46 -3 -27 -8 24 -7 23 -8 -14 -20 -21 -8 -78 -14 -126 -14 -76 0
-96 3 -144 27 -69 34 -104 78 -115 145 -8 52 -4 60 17 39 20 -20 14 -1 -19 57
-36 63 -33 102 8 135 42 33 85 23 131 -29 25 -28 20 -12 -10 31 -23 33 -15 53
36 92 37 27 118 68 124 61 2 -2 -1 -12 -7 -23z"/>
<path d="M770 5691 c0 -5 5 -13 10 -16 6 -3 10 -2 10 4 0 5 -4 13 -10 16 -5 3
-10 2 -10 -4z"/>
<path d="M840 5666 c0 -9 5 -16 10 -16 6 0 10 4 10 9 0 6 -4 13 -10 16 -5 3
-10 -1 -10 -9z"/>
<path d="M4485 5579 c-242 -32 -465 -152 -623 -333 -62 -72 -140 -219 -176
-333 -100 -319 -62 -707 94 -958 21 -33 43 -78 50 -100 8 -23 35 -61 66 -93
l54 -53 -16 -31 c-12 -22 -15 -49 -12 -92 4 -55 2 -65 -24 -100 -23 -32 -28
-49 -28 -96 0 -34 -6 -64 -15 -76 -17 -23 -19 -76 -3 -92 8 -8 -1 -32 -41 -96
-69 -112 -75 -136 -56 -211 9 -33 22 -69 29 -80 7 -11 23 -54 35 -95 17 -56
32 -84 62 -113 35 -35 43 -39 75 -34 l36 6 -6 -57 c-28 -251 -38 -1332 -13
-1382 7 -14 34 -37 60 -51 l47 -25 -26 -25 c-41 -37 -64 -96 -64 -166 l0 -63
-207 -3 -208 -2 219 -3 218 -2 72 -46 c65 -43 125 -98 126 -117 0 -4 17 -33
38 -65 87 -129 233 -369 317 -520 l40 -72 1263 0 c926 0 1262 3 1262 11 0 8 4
8 13 2 6 -5 58 -11 115 -12 l102 -3 -1 164 c-1 90 -4 147 -8 128 -4 -21 -9
-30 -14 -23 -9 15 -47 5 -47 -13 0 -8 -5 -14 -11 -14 -6 0 -17 -7 -25 -15 -9
-8 -13 -15 -9 -15 3 0 -4 -10 -15 -22 -24 -26 -50 -75 -50 -95 0 -7 -4 -13
-10 -13 -16 0 -12 12 30 84 22 37 40 70 40 73 0 3 27 42 60 88 57 79 60 86 60
142 l0 60 -76 14 -77 15 37 24 c20 14 36 30 36 36 0 11 -57 60 -118 102 -84
57 -196 101 -279 109 -59 6 -63 4 -92 -25 -45 -45 -43 -104 8 -230 44 -110 64
-192 59 -240 l-3 -32 -58 55 c-31 30 -62 55 -67 55 -5 0 0 -18 12 -41 16 -31
18 -43 9 -52 -13 -13 -15 -11 -82 42 -37 31 -40 32 -29 10 12 -22 12 -23 -3
-10 -10 7 -17 19 -17 26 0 7 -12 21 -27 31 -16 9 -64 47 -108 84 -198 164
-356 259 -533 319 -56 19 -84 21 -295 21 -212 0 -241 2 -342 25 -60 14 -132
31 -159 36 l-49 11 30 19 c36 23 75 77 98 135 15 38 19 41 73 52 116 24 251
109 299 189 27 44 30 103 9 181 -17 61 -31 46 124 132 130 73 201 122 238 165
27 30 32 44 32 86 0 51 -30 214 -56 303 -8 27 -14 79 -14 116 0 37 -7 90 -15
118 -13 44 -22 55 -55 72 -22 11 -55 20 -75 20 -28 0 -35 4 -35 20 0 25 -76
256 -135 410 -24 63 -45 120 -47 126 -2 6 33 31 77 54 227 119 354 265 426
485 20 63 23 91 24 280 2 243 3 248 92 332 52 49 54 52 34 63 -12 6 -49 13
-84 17 -102 9 -171 -17 -304 -116 -29 -22 -33 -23 -48 -7 -32 32 -96 14 -145
-40 -21 -23 -17 -21 24 9 56 42 97 48 120 16 14 -21 15 -21 65 20 29 22 82 55
119 73 59 29 76 33 149 33 45 0 86 -5 91 -10 5 -6 -12 -31 -45 -63 -29 -29
-53 -48 -53 -42 0 7 17 30 39 51 44 44 43 49 -1 17 -17 -11 -40 -42 -51 -67
-19 -41 -21 -66 -23 -251 -1 -116 -6 -226 -13 -254 -55 -230 -190 -391 -438
-527 -40 -21 -66 -30 -72 -24 -5 6 -27 49 -49 96 l-40 87 75 63 c128 109 203
226 242 380 24 94 35 240 23 299 -9 41 -10 37 -11 -46 -3 -249 -66 -410 -217
-556 -110 -107 -238 -188 -389 -248 -44 -18 -88 -36 -97 -41 -17 -8 -18 -1
-18 104 0 133 -7 150 -68 153 -22 1 -46 5 -53 10 -26 16 -225 16 -519 -1 -162
-9 -313 -20 -335 -25 -65 -14 -77 -39 -73 -142 1 -49 2 -88 0 -88 -1 0 -14 8
-29 17 -25 17 -26 16 -49 -12 -13 -17 -24 -25 -24 -20 0 6 -18 34 -40 64 -43
57 -47 75 -25 105 9 12 15 42 15 76 0 47 5 64 29 97 27 37 29 45 24 102 -6 59
8 111 28 111 5 0 27 -27 49 -60 22 -33 46 -60 52 -60 6 0 2 10 -9 23 -25 27
-75 107 -68 107 3 0 34 -18 68 -39 61 -39 179 -81 221 -80 11 0 -17 11 -63 25
-46 14 -91 29 -100 35 -13 9 -13 9 4 4 71 -23 229 -37 350 -31 195 9 434 66
505 119 9 7 8 3 -3 -9 -10 -12 -48 -34 -85 -49 -113 -46 -111 -44 -77 -41 47
4 162 63 242 123 75 57 135 127 173 201 31 63 18 63 -19 0 -30 -53 -102 -141
-83 -103 14 30 49 136 57 173 12 59 -3 33 -31 -54 -26 -83 -84 -178 -130 -214
-13 -10 -11 -4 7 20 71 95 80 270 24 463 -58 198 -253 471 -434 608 -105 79
-253 148 -333 156 -89 8 -139 -16 -238 -116 -129 -130 -217 -309 -245 -500
-23 -148 -19 -209 21 -375 5 -21 4 -27 -5 -22 -30 19 -68 158 -80 289 -8 91
-8 91 -10 25 -2 -92 23 -211 59 -284 37 -76 38 -91 4 -40 -35 51 -68 135 -101
253 -25 91 -27 112 -27 303 0 190 2 212 26 302 113 415 411 676 821 719 182
19 350 -12 522 -96 165 -80 303 -199 418 -361 56 -78 133 -247 163 -359 25
-89 28 -117 28 -255 0 -142 -3 -162 -28 -240 -15 -47 -26 -91 -26 -97 6 -45 4
-123 -3 -148 l-8 -30 20 33 c12 17 25 32 31 32 6 0 11 -29 11 -67 l2 -68 10
52 c11 58 4 103 -17 103 -9 0 -15 19 -20 55 -5 42 0 76 20 152 37 138 39 327
5 458 -113 434 -418 747 -817 840 -81 19 -243 26 -329 14z m-100 -632 c61 -26
200 -107 219 -129 6 -6 0 -5 -14 3 -29 18 -60 30 -60 24 0 -6 63 -36 85 -41
11 -2 60 -44 108 -93 l89 -90 -54 5 c-60 6 -96 -11 -85 -40 5 -11 19 -16 49
-16 91 0 164 -55 222 -167 23 -45 20 -47 -16 -20 -92 68 -220 58 -276 -21 -29
-40 -29 -61 -1 -36 l22 19 -19 -35 c-12 -22 -18 -57 -19 -96 0 -51 4 -66 28
-97 77 -101 230 -48 237 83 4 72 0 88 -35 125 -38 40 -40 51 -6 40 53 -16 121
-104 121 -155 0 -24 9 -26 25 -3 20 27 36 -37 42 -174 5 -101 3 -130 -11 -168
-50 -129 -259 -210 -576 -222 -357 -13 -593 84 -625 258 -4 20 -1 71 5 114 9
56 9 100 1 159 -16 126 -21 214 -12 191 5 -13 8 6 7 55 -1 76 26 176 45 164 5
-3 6 2 3 10 -7 19 76 171 124 227 19 21 38 36 44 33 6 -4 8 -3 5 3 -8 12 49
68 100 99 50 31 142 27 228 -9z m475 -657 c0 -37 -27 -52 -46 -25 -17 23 -1
55 26 55 16 0 20 -7 20 -30z m-42 -897 c-21 -2 -57 -2 -80 0 -24 2 -7 4 37 4
44 0 63 -2 43 -4z m-193 -9 c-11 -1 -134 -8 -273 -15 -156 -8 -248 -16 -240
-21 9 -6 6 -7 -8 -3 -40 11 -48 -15 -42 -148 4 -73 3 -106 -2 -81 -5 22 -10
80 -12 128 -4 125 -3 126 218 136 169 7 397 10 359 4z m319 -4 l25 -9 3 -171
3 -170 -27 0 -28 0 -1 83 c-1 45 -4 126 -8 180 -3 53 -3 97 1 97 4 0 18 -4 32
-10z m100 -71 c3 -17 6 -60 6 -94 0 -54 -3 -63 -20 -68 -19 -5 -20 0 -20 94 0
77 3 99 14 99 7 0 16 -14 20 -31z m-284 -3 c0 -11 -19 -15 -25 -6 -3 5 1 10 9
10 9 0 16 -2 16 -4z m37 -24 c-19 -20 -23 -37 -7 -27 6 3 7 -1 4 -9 -3 -9 -10
-16 -16 -16 -5 0 -6 5 -3 10 3 6 -1 10 -9 10 -10 0 -7 8 12 28 29 30 46 34 19
4z m-107 -37 c38 -20 51 -19 44 3 -5 14 -4 15 5 2 18 -25 12 -33 -21 -26 -32
6 -88 51 -88 70 0 6 7 0 16 -12 8 -12 28 -29 44 -37z m-5 35 c-3 -5 -1 -10 6
-10 7 0 10 -3 6 -6 -9 -9 -28 6 -22 17 4 5 8 9 11 9 3 0 2 -4 -1 -10z m-563
-22 c-4 -17 -2 -20 11 -15 8 3 21 -1 27 -8 9 -10 17 -12 30 -5 13 7 20 6 24
-6 9 -24 7 -46 -4 -39 -5 3 -7 12 -3 20 4 11 1 13 -11 9 -20 -8 -20 -18 -1
-38 14 -14 14 -18 0 -43 -13 -22 -15 -24 -10 -5 10 37 -2 60 -30 54 -14 -2
-25 -11 -25 -19 0 -8 5 -11 11 -7 8 4 8 0 0 -15 -13 -23 0 -63 13 -42 4 6 2
11 -4 11 -6 0 -8 5 -5 10 10 17 22 11 21 -10 0 -12 -7 -25 -15 -29 -9 -6 -12
-18 -7 -35 3 -14 2 -26 -3 -26 -10 0 -25 145 -16 160 3 5 1 10 -4 10 -6 0 -11
20 -11 45 0 25 4 45 9 45 5 0 7 -10 3 -22z m64 13 c-4 -5 -1 -11 6 -13 8 -3 6
-7 -5 -11 -12 -5 -17 -1 -17 13 0 11 5 20 11 20 5 0 8 -4 5 -9z m94 -4 c0 -16
-47 -43 -57 -34 -3 4 -1 7 6 7 7 0 19 6 26 14 8 7 11 16 8 20 -4 3 -1 6 5 6 7
0 12 -6 12 -13z m540 -35 c0 -9 -9 -23 -19 -29 -19 -12 -19 -12 -3 17 20 35
22 36 22 12z m770 -264 c28 -67 68 -176 89 -242 22 -67 42 -130 47 -141 5 -14
4 -17 -4 -10 -6 6 -27 62 -47 125 -44 135 -143 386 -185 471 -17 32 -30 62
-30 66 1 16 82 -150 130 -269z m-1330 247 c-14 -17 -30 -20 -30 -4 0 5 4 8 9
4 5 -3 12 -1 16 5 3 5 9 10 12 10 3 0 0 -7 -7 -15z m512 -7 c-7 -7 -12 -21
-11 -32 0 -12 3 -15 6 -8 2 6 12 12 21 12 13 0 13 -3 -4 -16 -19 -15 -19 -16
1 -9 16 5 17 4 8 -6 -10 -10 -15 -9 -28 1 -18 15 -20 56 -2 63 20 9 22 8 9 -5z
m628 -65 c27 -38 50 -71 50 -75 0 -4 -12 -9 -27 -11 -28 -4 -28 -4 3 -6 46 -2
85 -47 84 -97 -1 -21 2 -78 6 -126 9 -119 -7 -165 -74 -201 -46 -25 -166 -56
-177 -46 -3 3 1 21 7 40 8 20 13 82 13 149 0 106 -2 119 -27 163 l-27 47 30 0
c44 0 85 -25 119 -72 35 -48 40 -43 8 6 -13 19 -40 46 -61 60 l-39 25 44 11
c67 17 67 19 -2 15 -36 -2 -78 -9 -92 -16 -46 -20 -58 -7 -58 63 l0 63 77 38
c42 20 80 37 85 37 4 0 31 -30 58 -67z m-1493 -21 l23 -52 -48 -48 c-47 -47
-72 -101 -72 -156 0 -42 -16 -30 -33 25 -25 78 -22 117 16 180 48 79 71 109
82 105 5 -1 19 -26 32 -54z m577 -13 c-22 -25 -31 -24 -45 4 -12 21 -11 22 8
4 18 -15 22 -16 33 -2 7 8 10 21 7 29 -3 8 -3 17 1 21 16 16 12 -38 -4 -56z
m-485 20 c14 -40 14 -109 1 -109 -5 0 -10 -4 -10 -9 0 -4 28 -11 63 -13 79 -7
127 -30 127 -62 0 -30 -16 -36 -82 -31 l-53 4 65 -16 c69 -17 80 -25 80 -60 0
-26 -56 -48 -98 -39 -20 5 -23 4 -12 -4 8 -5 34 -10 58 -10 23 0 42 -2 42 -4
0 -2 3 -11 6 -19 18 -48 -109 -64 -210 -26 -79 29 -100 62 -93 145 2 35 11 74
19 86 8 13 22 52 32 88 33 121 45 135 65 79z m816 2 c-3 -6 -11 -11 -16 -11
-5 0 -4 6 3 14 14 16 24 13 13 -3z m288 -102 c52 -102 75 -203 62 -285 -5 -37
-10 -42 -37 -48 -76 -15 -219 0 -290 31 -35 15 -58 47 -44 60 3 3 41 6 83 6
43 -1 67 1 53 3 -134 22 -161 37 -142 79 11 24 16 25 92 25 94 0 99 15 9 23
-78 7 -89 18 -55 52 27 27 30 27 121 23 92 -4 93 -4 79 16 -14 21 -19 97 -7
110 14 14 28 -3 76 -95z m-555 -42 c26 -23 18 -50 -12 -42 -14 4 -17 3 -8 -3
7 -5 10 -16 7 -24 -5 -13 -11 -13 -30 -4 -13 6 -21 14 -19 18 3 5 0 8 -5 8 -6
0 -11 -6 -11 -13 0 -7 -10 -18 -21 -26 -19 -11 -21 -11 -16 2 6 16 -18 57 -34
57 -6 0 -7 -4 -4 -10 3 -5 1 -10 -6 -10 -8 0 -8 -4 1 -15 13 -16 3 -20 -18 -7
-10 7 -8 15 10 37 l22 28 22 -29 c13 -15 26 -25 30 -21 4 4 -3 18 -15 31 -25
27 -26 25 8 79 l23 37 28 -37 c15 -21 36 -46 48 -56z m-657 -10 c-33 -72 -42
-129 -32 -201 10 -69 22 -98 54 -133 11 -13 16 -23 10 -23 -20 0 -61 58 -82
115 -38 101 -21 217 40 273 31 30 34 22 10 -31z m1313 -3 c25 -9 55 -67 66
-125 12 -63 -1 -188 -25 -236 -13 -27 -70 -61 -81 -50 -2 2 3 35 11 73 23 107
19 233 -9 322 -8 23 5 29 38 16z m-588 -64 c31 -48 31 -49 13 -66 -11 -9 -17
-19 -15 -22 3 -2 13 3 23 13 16 17 18 17 27 -5 7 -15 6 -27 -2 -41 -7 -10 -12
-29 -12 -41 0 -37 -14 -52 -30 -33 -7 8 -17 15 -23 15 -5 0 -2 -9 7 -19 16
-18 16 -21 -3 -59 -11 -22 -33 -49 -48 -60 -24 -17 -25 -22 -14 -36 8 -9 11
-20 7 -24 -4 -4 -12 1 -17 11 -8 13 -14 15 -29 7 -17 -9 -18 -14 -8 -35 12
-27 23 -31 34 -13 4 6 3 8 -3 5 -6 -4 -14 0 -17 9 -10 25 2 30 22 11 13 -13
14 -21 6 -35 -15 -23 -23 -22 -48 11 -17 22 -18 31 -9 46 10 17 5 25 -42 67
-49 45 -125 159 -125 189 0 18 27 38 34 26 4 -5 -1 -14 -10 -19 -15 -9 -15
-12 -2 -31 14 -20 16 -20 29 -4 12 15 12 16 -3 10 -12 -4 -18 -2 -18 8 0 29
19 24 39 -11 l21 -36 -22 -18 c-24 -20 -15 -27 12 -10 17 11 53 -16 43 -33 -3
-5 0 -8 8 -5 8 3 22 -6 33 -19 l19 -24 37 36 c32 32 38 34 50 20 7 -8 17 -15
23 -15 6 0 1 10 -11 23 l-20 22 20 25 c12 14 19 18 16 9 -4 -9 2 -20 13 -27
17 -11 18 -10 8 16 -7 15 -16 37 -22 50 -8 16 -7 29 3 47 7 14 10 28 6 32 -4
4 -9 -3 -13 -15 -5 -21 -23 -31 -23 -14 0 5 -9 18 -21 30 -18 20 -19 24 -5 38
9 8 16 22 16 30 0 25 14 14 46 -36z m-201 20 c-3 -5 -1 -10 6 -10 8 0 8 -4 -1
-15 -7 -8 -22 -15 -35 -15 -12 0 -25 -3 -28 -7 -8 -8 11 -33 25 -33 6 0 4 7
-3 17 -13 15 -12 15 8 4 14 -7 20 -17 17 -26 -4 -8 -11 -12 -16 -9 -6 4 -8 -2
-3 -15 6 -19 3 -18 -22 6 -24 24 -27 32 -20 56 7 22 14 27 36 25 20 -2 25 1
23 15 -2 9 2 17 8 17 6 0 8 -4 5 -10z m118 -50 c14 -11 34 -35 45 -54 l20 -34
-20 -33 c-30 -50 -80 -97 -97 -91 -11 4 -10 7 5 12 16 6 13 8 -14 15 -60 13
-92 101 -56 153 9 13 11 22 4 22 -6 0 -8 5 -4 11 5 8 8 8 14 0 5 -9 10 -8 20
4 17 21 52 19 83 -5z m1050 -210 c39 -138 39 -140 -26 -140 -30 0 -76 -7 -103
-15 -27 -8 -50 -15 -51 -15 -2 0 -3 17 -2 38 0 33 5 40 47 67 52 33 92 98 92
149 0 48 15 19 43 -84z m-1589 -5 c-4 -8 -8 -15 -10 -15 -2 0 -4 7 -4 15 0 8
4 15 10 15 5 0 7 -7 4 -15z m1075 -79 c6 -34 13 -125 15 -203 l5 -143 -23 0
c-22 0 -23 3 -29 137 -11 216 -9 270 7 270 10 0 18 -20 25 -61z m-85 -78 c3
-67 6 -154 6 -195 0 -71 -1 -73 -25 -73 -21 0 -25 5 -25 28 -1 15 -5 98 -10
186 -4 87 -6 164 -4 171 3 7 15 10 28 8 22 -5 23 -10 30 -125z m-938 82 c12
-19 25 -28 38 -27 20 2 21 -4 24 -83 1 -47 6 -129 11 -183 13 -149 -4 -141
299 -145 300 -4 573 10 626 32 36 15 38 15 31 -2 -38 -93 14 -480 81 -601 27
-49 29 -55 12 -45 -7 4 -8 3 -4 -5 4 -6 11 -9 16 -6 5 3 22 -3 37 -15 57 -42
151 -46 294 -14 25 6 27 3 34 -38 5 -23 10 -38 12 -31 2 6 0 27 -5 46 -10 36
-1 57 24 57 20 0 39 -133 26 -179 -28 -92 -202 -200 -338 -209 -83 -5 -112 4
-189 57 -28 20 -42 26 -32 15 9 -11 14 -24 11 -27 -4 -4 5 -11 20 -16 14 -6
26 -13 26 -16 0 -4 -4 -4 -9 0 -5 3 -12 1 -15 -3 -3 -5 5 -9 17 -8 12 0 23 -4
25 -9 6 -18 -139 -45 -243 -46 -123 -1 -196 15 -340 76 -174 74 -221 87 -310
89 -71 1 -85 -2 -127 -27 -27 -15 -59 -40 -73 -54 -13 -15 -28 -24 -32 -19
-27 27 -26 1041 2 1301 8 77 15 146 15 153 0 21 18 13 36 -18z m103 -258 c10
-95 19 -118 56 -132 18 -8 17 -9 -6 -9 -15 -1 -32 5 -38 13 -17 20 -29 111
-34 261 -5 139 -6 141 22 -133z m1241 186 c0 -21 -8 -31 -32 -44 -18 -9 -47
-27 -65 -40 l-31 -24 1 62 2 62 45 9 c25 5 49 13 54 18 13 12 26 -9 26 -43z
m253 18 c-21 -28 -28 -26 -18 3 3 12 13 21 21 21 12 0 12 -4 -3 -24z m95 -21
c-3 -3 -9 2 -12 12 -6 14 -5 15 5 6 7 -7 10 -15 7 -18z m-208 -7 c-19 -5 -55
-16 -78 -23 -25 -7 -39 -8 -34 -3 13 13 98 37 127 36 11 0 4 -4 -15 -10z m90
-30 c-86 -23 -169 -53 -222 -78 -32 -16 -58 -25 -58 -21 0 16 173 89 240 101
62 11 82 10 40 -2z m83 5 c-7 -2 -21 -2 -30 0 -10 3 -4 5 12 5 17 0 24 -2 18
-5z m152 -13 c31 -12 52 -58 61 -134 6 -50 4 -59 -18 -88 -14 -18 -41 -41 -59
-51 l-34 -18 30 23 c49 37 75 70 75 91 0 40 -33 136 -52 153 -10 10 -38 21
-61 25 l-42 6 37 2 c20 0 48 -3 63 -9z m-1652 -15 c4 -8 2 -17 -3 -20 -6 -4
-10 3 -10 14 0 25 6 27 13 6z m624 -17 c-3 -8 -6 -5 -6 6 -1 11 2 17 5 13 3
-3 4 -12 1 -19z m563 12 c-8 -5 -19 -10 -25 -10 -5 0 -3 5 5 10 8 5 20 10 25
10 6 0 3 -5 -5 -10z m360 -36 c-117 -49 -272 -105 -276 -101 -2 2 40 21 94 41
53 21 115 46 137 56 56 24 98 38 115 39 8 0 -23 -16 -70 -35z m-1231 -4 c-13
-16 -25 -28 -27 -25 -5 5 37 55 45 55 2 0 -6 -13 -18 -30z m-317 -20 c3 -17 1
-33 -4 -36 -4 -3 -8 11 -8 30 0 44 6 47 12 6z m1375 24 c-3 -3 -12 -4 -19 -1
-8 3 -5 6 6 6 11 1 17 -2 13 -5z m-1337 -8 c0 -3 -4 -8 -10 -11 -5 -3 -10 -1
-10 4 0 6 5 11 10 11 6 0 10 -2 10 -4z m42 -43 c12 -26 14 -40 7 -49 -6 -7 -8
-23 -4 -35 5 -15 4 -19 -5 -14 -7 5 -9 20 -5 46 4 23 3 39 -3 39 -5 0 -12 11
-14 25 -7 36 4 30 24 -12z m513 18 c3 -5 0 -13 -6 -17 -8 -5 -9 -3 -4 6 6 10
4 12 -9 7 -10 -4 -15 -3 -11 3 8 13 22 13 30 1z m-575 -65 c-16 -16 -11 -36 8
-36 14 0 15 -2 2 -10 -25 -16 -32 -11 -28 20 3 17 0 30 -5 30 -5 0 -4 7 3 15
11 13 15 13 21 3 5 -7 4 -17 -1 -22z m1134 0 c20 -18 36 -41 36 -50 0 -24 -6
-20 -29 19 -11 20 -36 42 -53 50 -27 11 -29 14 -11 15 12 0 38 -15 57 -34z
m36 30 c0 -9 -30 -14 -35 -6 -4 6 3 10 14 10 12 0 21 -2 21 -4z m-1125 -24
c-3 -3 -11 0 -18 7 -9 10 -8 11 6 5 10 -3 15 -9 12 -12z m495 14 c0 -3 -4 -8
-10 -11 -5 -3 -10 -1 -10 4 0 6 5 11 10 11 6 0 10 -2 10 -4z m457 -53 c-3 -10
-5 -2 -5 17 0 19 2 27 5 18 2 -10 2 -26 0 -35z m-377 12 c0 -14 -4 -25 -9 -25
-4 0 -6 11 -3 25 2 14 6 25 8 25 2 0 4 -11 4 -25z m297 -5 c-7 -17 -13 -26
-15 -21 -3 10 15 51 22 51 3 0 -1 -14 -7 -30z m-807 -1 c-7 -11 -14 -18 -17
-15 -3 3 0 12 7 21 18 21 23 19 10 -6z m873 -110 c-5 -5 -6 11 -3 34 4 41 5
41 8 8 2 -18 0 -37 -5 -42z m72 31 c8 -13 -5 -13 -25 0 -13 8 -13 10 2 10 9 0
20 -4 23 -10z m600 -60 c-7 -12 -80 -60 -91 -60 -4 0 -1 7 6 15 7 8 18 15 24
15 6 0 23 11 36 24 25 24 38 27 25 6z m-388 -106 c-3 -3 -12 -4 -19 -1 -8 3
-5 6 6 6 11 1 17 -2 13 -5z m213 -28 c0 -3 -4 -8 -10 -11 -5 -3 -10 -1 -10 4
0 6 5 11 10 11 6 0 10 -2 10 -4z m288 -151 l-1 -40 -8 45 c-4 25 -7 61 -7 80
l0 35 9 -40 c4 -22 8 -58 7 -80z m-188 47 c0 -12 -61 -39 -103 -47 -29 -6 -37
-3 -46 13 -14 26 -14 43 0 20 13 -23 53 -22 104 1 22 11 41 20 43 20 1 1 2 -3
2 -7z m-267 -359 c-7 -2 -21 -2 -30 0 -10 3 -4 5 12 5 17 0 24 -2 18 -5z
m-1108 -417 c27 -13 63 -36 79 -51 28 -26 29 -28 13 -54 -9 -14 -23 -25 -32
-25 -8 1 -12 -3 -8 -9 4 -6 -2 -8 -15 -5 -12 4 -20 2 -16 -3 3 -5 1 -9 -4 -9
-5 0 -21 17 -35 38 -15 20 -41 47 -59 59 -41 27 -129 47 -176 39 -49 -8 -28
11 40 36 66 23 141 17 213 -16z m786 -67 c-6 -16 -10 -18 -10 -7 -1 22 12 55
16 42 2 -6 -1 -22 -6 -35z m-916 7 c69 -32 107 -78 103 -125 -3 -32 -7 -36
-48 -49 -67 -21 -264 -20 -314 1 -28 12 -37 21 -32 33 3 8 6 24 6 35 0 25 61
92 103 113 47 23 123 20 182 -8z m883 17 c-10 -2 -18 -9 -18 -14 0 -6 5 -7 10
-4 13 8 3 -38 -17 -78 -27 -55 -112 -86 -195 -72 -56 10 -111 62 -106 102 3
26 6 28 39 25 38 -3 218 24 253 38 12 5 28 8 36 8 10 0 9 -2 -2 -5z m-343 -75
c8 -37 40 -74 86 -104 23 -14 39 -32 39 -44 0 -10 5 -22 10 -25 6 -4 8 -10 6
-14 -6 -9 43 -57 94 -92 l35 -24 -55 -7 c-30 -3 -91 -7 -135 -7 -78 -1 -82 0
-192 55 -62 32 -110 61 -107 66 3 5 31 6 62 3 32 -3 91 -1 132 4 68 7 59 8
-90 10 -200 1 -193 -3 -174 121 7 47 13 85 13 85 1 0 62 0 136 0 l135 0 5 -27z
m-315 -98 c-13 -25 -64 -51 -155 -80 -94 -29 -265 -31 -322 -4 -26 13 -39 27
-41 43 -3 20 -1 22 15 16 94 -40 247 -44 353 -8 46 15 55 22 58 44 2 20 10 28
32 33 16 3 37 13 47 23 17 18 18 17 21 -14 2 -18 -2 -41 -8 -53z m1463 -128
c98 -38 236 -120 364 -215 101 -75 223 -183 223 -197 0 -10 -80 -30 -122 -30
-27 0 -46 12 -101 64 -37 35 -82 75 -99 88 -17 12 -40 33 -52 44 -12 12 -37
25 -56 29 -53 11 -68 22 -75 53 -3 16 -16 34 -28 40 -69 35 -155 59 -272 76
-83 13 -105 18 -105 27 0 5 -16 9 -35 9 -19 0 -43 4 -53 9 -9 5 -26 12 -37 16
-16 5 -17 8 -5 16 9 6 84 9 195 6 172 -4 183 -5 258 -35z m929 7 c74 -16 187
-70 264 -126 54 -40 62 -49 44 -51 -12 -2 -51 14 -88 36 -100 59 -108 60 -133
18 -33 -57 -58 -40 -33 23 8 18 14 35 14 37 0 2 -25 11 -55 20 -53 17 -56 17
-71 -2 -15 -18 -15 -18 -10 0 5 16 4 17 -8 7 -8 -7 -18 -26 -21 -42 -9 -38
-25 -27 -25 17 0 36 28 74 55 74 7 0 38 -5 67 -11z m-272 -504 c0 -3 -10 -1
-22 4 -13 5 -32 12 -43 16 -16 5 -17 8 -5 15 9 6 23 2 42 -11 15 -11 28 -22
28 -24z m50 25 c0 -5 -2 -10 -4 -10 -3 0 -8 5 -11 10 -3 6 -1 10 4 10 6 0 11
-4 11 -10z m-54 -51 c65 -32 134 -84 134 -100 0 -5 -21 6 -47 25 -92 65 -131
79 -214 80 -88 0 -116 -13 -142 -66 -13 -26 -17 -28 -17 -12 0 34 43 88 80
101 52 19 135 8 206 -28z m-306 -49 c-6 -12 -9 -32 -6 -45 5 -19 -2 -30 -37
-56 -23 -18 -49 -40 -57 -50 -9 -10 -37 -19 -70 -22 -45 -5 -51 -4 -35 6 11 7
62 54 113 106 87 89 118 110 92 61z"/>
<path d="M4200 4958 c0 -9 23 -9 65 2 26 7 24 8 -17 7 -27 0 -48 -4 -48 -9z"/>
<path d="M4320 4945 c33 -19 49 -19 24 0 -10 8 -26 14 -34 14 -9 0 -4 -6 10
-14z"/>
<path d="M4367 4923 c-13 -12 -7 -23 12 -23 11 0 22 -4 26 -10 3 -6 15 -5 31
2 21 10 22 13 9 20 -8 5 -19 7 -24 3 -5 -3 -12 -1 -16 5 -7 11 -28 13 -38 3z
m38 -13 c3 -5 12 -7 20 -3 8 3 15 3 15 0 0 -13 -28 -13 -45 -1 -10 8 -14 14
-8 14 7 0 14 -4 18 -10z"/>
<path d="M4115 4911 c-3 -5 -2 -12 3 -15 5 -3 9 1 9 9 0 17 -3 19 -12 6z"/>
<path d="M4497 4869 c7 -7 15 -10 18 -7 3 3 -2 9 -12 12 -14 6 -15 5 -6 -5z"/>
<path d="M4484 4851 c4 -6 16 -16 28 -22 15 -8 18 -8 14 0 -4 6 -16 16 -28 22
-15 8 -18 8 -14 0z"/>
<path d="M3984 4749 c-3 -6 -2 -15 3 -20 5 -5 9 -1 9 11 0 23 -2 24 -12 9z"/>
<path d="M4598 4733 c7 -3 16 -2 19 1 4 3 -2 6 -13 5 -11 0 -14 -3 -6 -6z"/>
<path d="M4660 4716 c7 -7 13 -7 20 0 6 6 3 10 -10 10 -13 0 -16 -4 -10 -10z"/>
<path d="M4691 4707 c2 -2 20 -14 39 -26 l35 -23 -30 26 c-16 14 -34 26 -39
26 -5 0 -7 -1 -5 -3z"/>
<path d="M3995 4586 c-50 -22 -108 -97 -86 -111 5 -2 20 4 34 15 36 28 91 50
127 50 23 0 30 4 30 20 0 13 -10 24 -26 30 -32 13 -42 12 -79 -4z"/>
<path d="M3861 4503 c-7 -8 -15 -33 -17 -56 -3 -36 -2 -38 4 -12 5 17 14 41
21 53 15 28 11 36 -8 15z"/>
<path d="M3961 4378 c-84 -41 -125 -139 -87 -207 13 -24 14 -23 25 29 11 51
52 120 70 120 5 0 0 -17 -10 -37 -26 -50 -25 -119 2 -163 29 -48 48 -59 92
-60 85 0 133 64 125 167 -10 143 -103 208 -217 151z m186 -94 c3 -8 -2 -23
-11 -32 -14 -15 -18 -15 -31 -1 -9 9 -13 23 -9 32 8 21 43 22 51 1z"/>
<path d="M4360 4074 c0 -10 7 -14 22 -12 32 5 35 28 4 28 -17 0 -26 -5 -26
-16z"/>
<path d="M4470 3980 c-8 -6 -51 -10 -95 -9 -44 0 -86 0 -92 0 -24 -2 -15 -66
12 -93 48 -48 175 -42 215 9 42 54 11 127 -40 93z m-14 -55 c-32 -17 -39 -19
-32 -7 3 5 -8 9 -25 10 -58 1 -40 10 23 11 61 1 62 0 34 -14z m54 -9 c0 -8 -7
-19 -15 -26 -11 -9 -15 -9 -15 -1 0 7 -10 9 -27 6 -28 -5 -28 -5 -4 5 14 6 31
8 39 5 10 -4 13 0 9 15 -3 11 -1 18 4 14 5 -3 9 -11 9 -18z m-196 -22 c3 -8 2
-12 -4 -9 -6 3 -10 10 -10 16 0 14 7 11 14 -7z m76 12 c0 -2 -9 -6 -20 -9 -11
-3 -18 -1 -14 4 5 9 34 13 34 5z m40 -36 c8 -5 11 -10 5 -10 -5 0 -17 5 -25
10 -8 5 -10 10 -5 10 6 0 17 -5 25 -10z"/>
<path d="M4131 3231 c-17 -11 -7 -41 13 -41 22 0 30 20 15 36 -9 8 -19 10 -28
5z"/>
<path d="M5230 3146 c0 -2 7 -7 16 -10 8 -3 12 -2 9 4 -6 10 -25 14 -25 6z"/>
<path d="M5220 3110 c-9 -6 -10 -10 -3 -10 6 0 15 5 18 10 8 12 4 12 -15 0z"/>
<path d="M4453 3023 c-19 -28 -19 -28 2 -50 l22 -23 21 23 20 22 -22 28 -23
29 -20 -29z m17 -25 c0 -9 3 -8 10 2 5 8 12 11 16 7 4 -4 1 -15 -8 -23 -15
-15 -17 -15 -27 5 -8 14 -8 21 -1 21 5 0 10 -6 10 -12z"/>
<path d="M4512 2970 c-27 -23 -27 -26 1 -41 19 -11 20 -10 9 3 -10 12 -10 17
1 27 8 6 17 8 20 4 4 -3 7 -1 7 5 0 20 -15 21 -38 2z"/>
<path d="M4572 2918 c-7 -7 -12 -16 -12 -20 0 -15 15 -8 28 12 13 22 3 27 -16
8z"/>
<path d="M4580 2885 c-7 -8 -8 -15 -2 -15 5 0 15 7 22 15 7 8 8 15 2 15 -5 0
-15 -7 -22 -15z"/>
<path d="M4642 2814 c-7 -8 -10 -19 -6 -26 5 -7 10 -3 16 12 10 28 7 33 -10
14z"/>
<path d="M4367 2763 c-4 -3 -7 -11 -7 -17 0 -6 5 -5 12 2 6 6 9 14 7 17 -3 3
-9 2 -12 -2z"/>
<path d="M4380 2695 c0 -17 9 -19 28 -6 11 7 10 10 -3 15 -23 9 -25 8 -25 -9z"/>
<path d="M4406 2673 c-9 -9 -7 -25 2 -19 5 3 16 -4 25 -15 9 -10 24 -19 32
-19 9 0 14 -3 12 -7 -3 -5 3 -16 13 -26 17 -17 19 -16 61 23 41 38 42 41 26
57 -9 9 -20 13 -24 9 -5 -5 -2 -11 5 -13 6 -3 12 -9 12 -15 0 -6 -8 -3 -19 6
-17 16 -19 16 -26 -1 -5 -10 -7 -22 -6 -26 1 -4 -7 -3 -18 3 -11 5 -26 7 -34
4 -10 -4 -15 1 -14 13 1 9 -2 18 -8 18 -5 0 -15 3 -21 7 -6 4 -14 5 -18 1z
m143 -37 c9 -10 8 -15 -2 -19 -8 -3 -13 3 -14 14 -2 23 1 24 16 5z m-44 -26
c10 -11 13 -20 7 -20 -6 0 -16 9 -22 20 -6 11 -9 20 -7 20 2 0 12 -9 22 -20z"/>
<path d="M4446 2859 c-48 -57 -43 -115 14 -144 27 -14 30 -14 30 0 0 9 -4 14
-10 10 -16 -10 -50 33 -50 63 0 31 34 80 44 64 3 -5 2 -21 -3 -34 -8 -18 -10
-19 -10 -5 -1 10 -5 16 -10 12 -6 -3 -8 -18 -7 -33 2 -15 4 -32 5 -38 0 -7 8
-15 17 -18 12 -5 15 -2 10 11 -4 10 -4 15 -1 11 4 -3 15 2 25 12 9 9 24 20 31
22 11 4 10 10 -5 27 -22 25 -36 20 -15 -6 8 -9 9 -14 2 -10 -6 4 -13 1 -16 -5
-3 -7 -4 1 -3 17 1 17 -2 37 -8 45 -9 13 -8 13 5 3 9 -7 18 -11 21 -8 8 8 36
-28 42 -55 5 -18 -1 -33 -20 -55 l-26 -30 21 32 c27 40 26 44 -4 30 -14 -7
-25 -16 -25 -20 0 -5 5 -5 12 -1 7 4 8 3 4 -4 -12 -19 -16 -52 -6 -52 4 0 20
14 34 31 37 43 34 83 -8 125 -42 42 -57 42 -90 3z"/>
<path d="M5468 1453 c7 -3 16 -2 19 1 4 3 -2 6 -13 5 -11 0 -14 -3 -6 -6z"/>
<path d="M5136 1071 c-4 -6 -2 -11 3 -11 6 0 11 -8 12 -17 0 -10 3 -13 5 -6 8
18 -11 49 -20 34z"/>
<path d="M5095 1050 c-3 -6 1 -7 9 -4 18 7 21 14 7 14 -6 0 -13 -4 -16 -10z"/>
<path d="M5993 5270 c-12 -5 -29 -20 -38 -33 -11 -18 -22 -23 -40 -19 -30 5
-34 -13 -5 -21 28 -7 26 -15 -24 -78 -28 -36 -60 -63 -90 -77 -59 -28 -63 -58
-10 -68 44 -8 141 1 158 15 9 8 19 4 37 -15 35 -38 96 -64 154 -64 38 0 67 8
122 37 98 50 107 75 33 87 -52 8 -52 35 0 50 44 13 130 95 130 124 0 20 -3 21
-58 16 -32 -4 -91 -1 -130 6 -59 10 -76 9 -88 -1 -13 -11 -18 -10 -25 4 -12
21 -61 47 -86 46 -10 0 -28 -4 -40 -9z m110 -51 c26 -28 29 -29 41 -14 11 15
19 16 65 6 28 -6 84 -11 123 -11 l72 0 -34 -35 c-38 -39 -87 -65 -122 -65 -22
0 -24 -4 -20 -30 4 -28 2 -30 -27 -30 -17 0 -31 -4 -31 -10 0 -5 20 -10 44
-10 24 0 58 -3 75 -6 l32 -7 -66 -39 c-36 -22 -80 -42 -98 -45 -67 -10 -158
32 -177 83 l-9 22 -38 -19 c-38 -20 -163 -28 -163 -11 0 5 18 17 39 27 44 19
79 53 109 104 18 30 21 31 27 12 7 -23 48 -55 85 -66 20 -6 16 1 -22 37 -54
50 -61 79 -26 123 18 23 26 26 57 21 23 -3 46 -17 64 -37z"/>
<path d="M5990 5190 c0 -5 4 -10 9 -10 6 0 13 5 16 10 3 6 -1 10 -9 10 -9 0
-16 -4 -16 -10z"/>
<path d="M1586 5005 c-9 -26 -7 -32 5 -12 6 10 9 21 6 23 -2 3 -7 -2 -11 -11z"/>
<path d="M1561 4914 c0 -11 3 -14 6 -6 3 7 2 16 -1 19 -3 4 -6 -2 -5 -13z"/>
<path d="M1318 4466 c-80 -35 -113 -108 -112 -246 1 -117 26 -190 85 -249 45
-45 88 -61 163 -61 44 0 56 -5 98 -41 27 -23 52 -39 55 -35 3 3 -6 39 -22 81
l-27 75 26 75 c59 170 15 334 -105 395 -43 22 -118 25 -161 6z m175 -28 c46
-33 64 -56 87 -116 28 -72 26 -150 -6 -251 l-26 -83 25 -69 c13 -38 22 -69 19
-69 -4 0 -23 16 -43 36 -35 34 -41 36 -107 38 -57 1 -77 7 -110 29 -53 35 -89
97 -108 188 -34 161 10 280 121 321 35 13 114 0 148 -24z"/>
<path d="M1402 4340 c0 -14 2 -19 5 -12 2 6 2 18 0 25 -3 6 -5 1 -5 -13z"/>
<path d="M1320 4321 c0 -11 4 -22 9 -25 4 -3 6 6 3 19 -5 30 -12 33 -12 6z"/>
<path d="M1437 4323 c-3 -5 8 -8 24 -8 16 0 29 3 29 8 0 4 -11 7 -24 7 -14 0
-27 -3 -29 -7z"/>
<path d="M1398 4283 c6 -2 18 -2 25 0 6 3 1 5 -13 5 -14 0 -19 -2 -12 -5z"/>
<path d="M1440 4239 c47 -4 89 -4 93 0 5 5 -33 9 -85 9 l-93 0 85 -9z"/>
<path d="M1291 4194 c-2 -42 55 -46 90 -7 l24 26 -36 -21 c-39 -24 -65 -21
-72 6 -3 12 -5 11 -6 -4z"/>
<path d="M1470 4160 c0 -19 3 -21 12 -12 9 9 9 15 0 24 -9 9 -12 7 -12 -12z"/>
<path d="M1400 4156 c0 -2 11 -6 25 -8 13 -3 22 -1 19 3 -5 9 -44 13 -44 5z"/>
<path d="M1383 4085 c0 -33 2 -45 4 -27 2 18 2 45 0 60 -2 15 -4 0 -4 -33z"/>
<path d="M1446 4115 c-3 -8 -12 -15 -21 -15 -8 0 -15 -4 -15 -10 0 -5 6 -10
13 -10 19 0 51 37 39 44 -6 3 -12 -1 -16 -9z"/>
<path d="M5181 4084 c0 -11 3 -14 6 -6 3 7 2 16 -1 19 -3 4 -6 -2 -5 -13z"/>
<path d="M4715 3610 c3 -5 -1 -11 -7 -13 -9 -4 -8 -6 2 -6 8 0 21 3 28 8 10 6
9 10 -7 14 -12 3 -19 1 -16 -3z"/>
<path d="M4658 3583 c7 -3 16 -2 19 1 4 3 -2 6 -13 5 -11 0 -14 -3 -6 -6z"/>
<path d="M4308 3573 c6 -2 18 -2 25 0 6 3 1 5 -13 5 -14 0 -19 -2 -12 -5z"/>
<path d="M783 3165 c0 -27 2 -38 4 -22 2 15 2 37 0 50 -2 12 -4 0 -4 -28z"/>
<path d="M780 3061 c0 -6 4 -13 10 -16 6 -3 7 1 4 9 -7 18 -14 21 -14 7z"/>
<path d="M841 2984 c0 -11 3 -14 6 -6 3 7 2 16 -1 19 -3 4 -6 -2 -5 -13z"/>
<path d="M787 2856 c-3 -8 -29 -22 -57 -31 -105 -35 -337 -210 -426 -323 -61
-78 -111 -181 -119 -247 -8 -60 -16 -68 -33 -31 -18 39 -73 96 -114 117 -21
11 -38 15 -38 10 0 -5 9 -13 21 -16 30 -10 98 -73 126 -118 26 -42 22 -65 -5
-32 -24 29 -132 108 -139 101 -3 -3 2 -8 11 -12 9 -3 16 -14 16 -24 0 -10 9
-22 20 -25 11 -4 20 -15 20 -27 0 -17 -5 -20 -35 -16 l-35 4 0 -282 c0 -238 2
-283 15 -294 20 -16 19 -64 0 -84 -12 -12 -15 -32 -13 -83 l3 -68 33 85 c63
164 83 200 148 256 34 30 64 54 66 54 3 0 22 -20 42 -45 36 -43 36 -45 25 -89
-10 -40 -9 -50 11 -91 24 -50 25 -38 -11 -293 -11 -79 -18 -146 -16 -149 3 -2
34 -5 70 -6 l65 -2 2 175 c1 96 2 186 2 200 0 24 14 50 27 50 9 0 7 -393 -2
-408 -5 -6 -4 -12 2 -12 24 0 28 42 23 220 -4 163 -3 193 13 233 18 47 17 68
-6 124 -12 29 -11 35 16 73 33 48 72 71 84 52 8 -13 60 -302 70 -387 5 -40 10
-50 26 -53 15 -2 17 -1 6 6 -11 8 -10 12 8 23 11 8 21 17 21 22 0 4 -5 5 -11
1 -14 -8 -29 14 -29 42 0 16 8 23 29 27 22 5 34 17 51 52 12 25 20 55 17 65
-3 11 -1 18 4 15 16 -11 22 47 10 118 -13 82 -45 151 -81 179 -23 16 -30 17
-62 6 -63 -22 -125 -74 -157 -130 -47 -83 -50 -86 -50 -62 -2 64 158 224 224
224 24 0 18 15 -22 54 -41 39 -53 44 -53 21 0 -8 6 -15 14 -15 7 0 20 -8 27
-17 9 -11 10 -14 2 -9 -7 4 -23 1 -35 -5 -21 -11 -22 -11 -9 4 10 13 11 17 1
17 -7 0 -30 -18 -51 -40 -21 -22 -43 -40 -50 -40 -8 0 -9 4 0 13 6 8 8 17 4
20 -3 4 0 7 8 7 21 0 40 37 34 63 -5 17 3 30 37 57 24 20 64 48 91 63 26 15
47 30 47 33 0 6 -52 -21 -102 -53 -49 -30 -49 -17 -1 25 22 19 25 25 9 13 -16
-12 -31 -20 -33 -18 -1 2 5 29 16 59 11 33 16 61 11 69 -6 8 4 35 26 74 19 34
34 74 34 89 0 16 16 47 40 77 53 68 80 130 73 172 -4 27 -1 35 19 45 13 7 30
22 36 33 11 18 9 24 -20 51 -18 17 -32 37 -30 44 4 18 -4 18 -11 0z m8 -46
c-3 -5 0 -7 8 -4 18 6 41 -21 33 -41 -3 -8 -18 -20 -33 -26 -15 -6 -40 -18
-56 -26 -36 -19 -54 -8 -30 20 9 12 11 16 3 10 -23 -21 -35 -15 -15 7 10 12
25 18 32 16 21 -8 15 2 -8 15 -15 8 -19 8 -15 0 5 -7 -1 -11 -14 -11 -12 0
-18 -4 -15 -10 3 -5 2 -10 -4 -10 -25 0 -17 19 18 38 38 22 70 31 41 12 -10
-7 -11 -10 -2 -10 7 0 15 7 18 15 4 8 15 15 26 15 10 0 16 -4 13 -10z m-146
-53 c-2 -1 -13 -9 -24 -17 -19 -14 -19 -14 -6 3 7 9 18 17 24 17 6 0 8 -1 6
-3z m40 -39 c20 -21 20 -38 -1 -38 -6 0 -8 3 -5 7 7 7 -21 43 -33 43 -4 0 -6
-13 -5 -29 2 -24 -3 -30 -39 -45 -28 -12 -42 -24 -43 -37 -2 -18 0 -18 17 3
11 13 19 17 20 10 0 -7 13 -1 29 14 19 16 28 33 26 46 -3 12 1 18 8 15 7 -2
12 -10 12 -18 0 -21 -67 -77 -84 -71 -8 2 -11 0 -7 -6 3 -5 -1 -12 -9 -16 -8
-3 -15 -13 -15 -21 0 -9 -4 -14 -9 -11 -5 3 -7 23 -4 45 6 46 -17 62 -51 34
-21 -17 -21 -17 0 6 18 19 25 21 42 12 30 -16 42 -14 35 7 -5 14 -3 15 8 5 20
-20 31 -15 23 9 -6 20 -5 21 10 9 14 -12 16 -11 17 3 1 9 3 21 4 26 1 6 3 12
4 15 3 13 32 3 50 -17z m93 -35 c5 -40 -17 -88 -74 -167 -27 -38 -47 -75 -44
-83 7 -17 -27 -92 -55 -122 -17 -18 -18 -25 -8 -37 18 -22 -35 -181 -77 -231
l-33 -38 -1 35 c0 19 7 67 15 105 17 83 19 108 5 100 -16 -10 -11 16 10 64 11
24 18 46 15 49 -3 3 -5 -1 -5 -8 0 -7 -2 -11 -5 -8 -8 8 6 39 14 33 9 -5 44
65 37 72 -2 3 -11 -8 -20 -24 -18 -33 -21 -26 -4 14 17 44 19 62 4 41 -7 -10
-16 -15 -19 -12 -3 3 2 14 11 24 13 16 18 17 35 5 18 -13 23 -11 48 22 17 21
29 48 29 65 0 26 -2 28 -20 18 -11 -6 -17 -16 -14 -22 5 -7 2 -8 -6 -3 -8 5
-11 3 -8 -6 3 -8 11 -13 17 -11 15 3 14 -10 -5 -36 -16 -23 -17 -23 -36 -5
-19 17 -20 17 -38 -5 -10 -12 -22 -22 -26 -22 -13 0 38 49 58 56 10 3 16 9 13
14 -3 5 11 25 32 45 33 32 38 34 44 18 6 -15 8 -14 8 7 1 18 13 33 44 52 52
34 55 34 59 1z m-352 -107 c0 -2 -7 -7 -16 -10 -8 -3 -12 -2 -9 4 6 10 25 14
25 6z m99 -15 c12 -8 11 -13 -5 -34 -14 -17 -22 -21 -29 -13 -13 14 -16 48 -4
40 5 -3 9 0 9 5 0 13 10 14 29 2z m-76 -96 c-3 -9 -8 -14 -10 -11 -3 3 -2 9 2
15 9 16 15 13 8 -4z m9 -29 c-15 -24 -29 -42 -31 -40 -4 4 47 84 54 84 2 0 -8
-20 -23 -44z m-42 -21 c0 -5 -5 -3 -10 5 -5 8 -10 20 -10 25 0 6 5 3 10 -5 5
-8 10 -19 10 -25z m-119 -18 c-10 -9 -11 -8 -5 6 3 10 9 15 12 12 3 -3 0 -11
-7 -18z m170 0 c-10 -9 -11 -8 -5 6 3 10 9 15 12 12 3 -3 0 -11 -7 -18z m28
-106 c0 -14 -1 -14 -6 -1 -3 8 -10 24 -15 35 -9 20 -9 20 6 1 9 -11 16 -27 15
-35z m16 39 c3 -5 1 -10 -4 -10 -6 0 -11 5 -11 10 0 6 2 10 4 10 3 0 8 -4 11
-10z m-18 -162 c-3 -7 -5 -2 -5 12 0 14 2 19 5 13 2 -7 2 -19 0 -25z m-10 -50
c-3 -7 -5 -2 -5 12 0 14 2 19 5 13 2 -7 2 -19 0 -25z m-22 -80 c-10 -13 -14
-16 -11 -8 3 8 9 24 13 35 4 11 8 14 11 7 2 -6 -4 -22 -13 -34z m-34 -85 c-12
-20 -14 -14 -5 12 4 9 9 14 11 11 3 -2 0 -13 -6 -23z m17 -84 c-6 -19 -17 -61
-24 -94 -9 -48 -12 -53 -13 -25 -1 35 20 127 34 150 13 21 15 3 3 -31z m-61
-11 c-3 -8 -6 -5 -6 6 -1 11 2 17 5 13 3 -3 4 -12 1 -19z m-34 -116 c15 -16
18 -25 10 -33 -8 -8 -24 10 -57 67 -55 94 -61 121 -10 44 20 -30 46 -65 57
-78z m400 92 c-4 -12 -8 -13 -14 -3 -9 15 -2 32 11 24 5 -3 6 -13 3 -21z m-35
-89 c-3 -3 -9 2 -12 12 -6 14 -5 15 5 6 7 -7 10 -15 7 -18z m32 -9 c0 -2 -8
-10 -17 -17 -16 -13 -17 -12 -4 4 13 16 21 21 21 13z m11 -24 c-5 -10 -18 -25
-27 -33 -11 -9 -9 -2 6 19 26 35 36 42 21 14z m-273 -61 c13 -37 -3 -98 -30
-112 -16 -9 -17 -7 -8 16 13 34 13 112 0 120 -5 3 -10 11 -10 16 0 20 38 -11
48 -40z m302 45 c0 -2 -8 -10 -17 -17 -16 -13 -17 -12 -4 4 13 16 21 21 21 13z
m-123 -48 c-3 -8 -6 -5 -6 6 -1 11 2 17 5 13 3 -3 4 -12 1 -19z m79 -10 c-21
-30 -20 -44 2 -27 15 13 16 12 4 -3 -9 -11 -10 -18 -2 -23 5 -3 10 -11 10 -16
0 -6 -4 -7 -10 -4 -6 4 -7 -6 -4 -25 4 -16 4 -30 1 -30 -15 0 -37 13 -37 22 0
6 6 5 15 -2 9 -8 15 -9 15 -2 0 6 -4 13 -9 16 -12 8 -6 83 9 101 19 23 23 18
6 -7z m-56 -24 c-18 -21 -24 -10 -8 15 7 12 14 17 16 11 2 -6 -2 -17 -8 -26z
m-273 -9 c0 -10 -5 -11 -19 -4 -10 5 -18 11 -18 12 0 2 8 3 18 4 10 1 19 -5
19 -12z m361 -30 c-3 -3 -9 2 -12 12 -6 14 -5 15 5 6 7 -7 10 -15 7 -18z
m-364 -90 c-4 -8 -11 -12 -16 -9 -6 4 -5 10 3 15 19 12 19 11 13 -6z m9 -359
c4 -10 1 -13 -8 -9 -8 3 -12 9 -9 14 7 12 11 11 17 -5z"/>
<path d="M600 2534 c0 -8 5 -12 10 -9 6 3 10 10 10 16 0 5 -4 9 -10 9 -5 0
-10 -7 -10 -16z"/>
<path d="M504 2545 c-9 -22 1 -29 15 -11 8 10 9 16 1 21 -5 3 -13 -1 -16 -10z"/>
<path d="M6660 2813 l-32 -29 29 -30 c25 -27 27 -35 20 -66 -9 -40 8 -82 69
-169 27 -38 32 -55 28 -78 -5 -22 2 -49 25 -97 20 -43 28 -70 21 -74 -11 -7 0
-82 19 -132 18 -47 20 -31 4 29 -8 32 -12 72 -10 91 4 23 -3 50 -25 99 -26 54
-29 69 -19 84 9 16 4 30 -34 86 -58 88 -75 132 -64 161 5 12 12 22 16 22 13 0
99 -73 128 -108 21 -25 25 -36 16 -45 -8 -8 -11 -7 -11 6 0 9 -14 31 -31 49
-33 35 -29 18 4 -19 11 -13 17 -23 13 -23 -4 0 5 -17 21 -37 15 -21 28 -40 29
-42 7 -10 22 12 17 25 -4 12 -8 13 -13 3 -6 -8 -11 -6 -19 9 -18 34 5 35 33 2
14 -18 23 -37 19 -46 -4 -12 -8 -13 -13 -3 -5 7 -8 -5 -8 -27 0 -21 3 -43 6
-49 4 -5 7 -12 8 -15 6 -32 18 -60 26 -60 6 0 8 11 6 25 -6 28 7 35 14 8 6
-28 -2 -55 -16 -50 -9 3 -11 -4 -8 -25 3 -21 7 -26 13 -17 12 20 11 2 -1 -22
-14 -24 -2 -97 12 -77 8 11 9 10 6 -1 -6 -20 -28 -26 -28 -7 0 8 -5 18 -11 22
-8 4 -9 -1 -3 -17 4 -13 7 -38 6 -56 -1 -18 3 -35 10 -39 7 -5 8 -2 3 7 -5 9
-1 8 10 -3 21 -20 11 -46 -11 -27 -11 9 -14 6 -14 -16 l0 -28 -27 34 c-68 88
-179 150 -273 155 l-65 3 60 -8 c71 -10 86 -16 145 -55 84 -56 86 -61 25 -62
-62 -1 -97 -20 -116 -63 -17 -38 -30 -43 -68 -30 -30 11 -30 11 -16 46 21 50
18 55 -6 10 -20 -37 -22 -39 -57 -32 -20 4 -84 24 -142 45 -68 25 -97 33 -81
21 26 -20 132 -60 256 -96 94 -27 115 -30 136 -21 31 13 130 -34 182 -87 58
-60 101 -121 95 -138 -2 -7 -16 8 -30 32 -50 84 -149 159 -212 159 -34 0 -72
-49 -93 -118 -37 -125 -11 -263 60 -310 40 -27 44 -38 24 -66 -13 -18 -15 -17
-35 9 -12 15 -22 23 -22 18 0 -17 41 -63 56 -63 8 0 14 -6 15 -12 1 -15 18 72
49 252 32 190 29 180 55 180 14 0 37 -16 60 -41 33 -36 36 -45 29 -73 -11 -45
-9 -124 5 -176 8 -30 11 -103 9 -215 -2 -122 1 -176 10 -190 10 -16 12 21 10
198 -3 190 2 249 17 205 3 -12 16 -281 18 -380 1 -29 5 -38 18 -38 10 0 19 4
21 10 2 6 18 6 43 0 24 -5 44 -5 49 0 5 5 4 39 -3 82 -7 40 -21 131 -31 201
-19 128 -19 129 2 168 18 35 19 45 9 84 -11 44 -10 47 25 93 l36 48 31 -31
c18 -17 42 -38 54 -46 12 -9 43 -46 68 -83 l45 -68 0 352 0 352 -37 -27 c-21
-15 -46 -37 -55 -47 -10 -11 -18 -19 -19 -17 0 2 -2 13 -4 24 -29 197 -50 243
-184 390 -65 72 -163 152 -251 205 -92 55 -111 58 -150 23z m38 -21 c-10 -13
-7 -13 9 1 17 15 25 17 40 7 17 -11 17 -11 -1 -6 -16 6 -17 4 -6 -9 7 -9 19
-14 26 -11 8 3 11 0 8 -8 -3 -7 2 -16 10 -19 9 -4 14 -1 12 6 -1 7 -1 9 1 4 3
-4 9 -5 14 -1 5 3 18 -1 30 -9 15 -11 17 -16 7 -20 -8 -3 -5 -6 7 -6 11 -1 31
-11 45 -22 24 -20 24 -20 2 -9 -22 11 -23 10 -21 -12 4 -31 -8 -49 -28 -41
-11 4 -14 3 -9 -6 5 -7 15 -10 23 -7 8 3 11 1 8 -5 -4 -5 -1 -18 7 -27 7 -9
-16 10 -52 42 -36 32 -88 74 -117 92 -66 43 -72 53 -44 76 27 21 48 14 29 -10z
m242 -132 c0 -5 -5 -10 -11 -10 -5 0 -7 5 -4 10 3 6 8 10 11 10 2 0 4 -4 4
-10z m-36 -32 c-4 -34 -5 -35 -13 -13 -9 21 -5 35 8 35 4 0 7 -10 5 -22z m23
-40 c-3 -8 -6 -5 -6 6 -1 11 2 17 5 13 3 -3 4 -12 1 -19z m43 -206 c0 -15 -30
32 -36 54 -5 24 -3 23 15 -11 12 -21 21 -41 21 -43z m-63 36 c-3 -8 -6 -5 -6
6 -1 11 2 17 5 13 3 -3 4 -12 1 -19z m71 -93 c-6 -14 -13 -23 -15 -21 -5 5 15
46 22 46 3 0 -1 -11 -7 -25z m-17 -107 c11 -21 11 -22 -4 -9 -10 7 -17 17 -17
22 0 15 9 10 21 -13z m69 -48 c0 -5 -4 -10 -10 -10 -5 0 -10 5 -10 10 0 6 5
10 10 10 6 0 10 -4 10 -10z m-77 -55 c-3 -9 -8 -14 -10 -11 -3 3 -2 9 2 15 9
16 15 13 8 -4z m124 -67 c-3 -7 -5 -2 -5 12 0 14 2 19 5 13 2 -7 2 -19 0 -25z
m-232 8 c31 -4 58 -50 60 -101 2 -43 1 -45 -14 -28 -9 10 -28 37 -43 60 -34
51 -61 69 -77 49 -9 -11 -9 -15 1 -19 7 -2 3 -2 -9 0 -13 2 -23 -1 -23 -7 0
-5 7 -10 16 -10 9 0 12 -5 8 -12 -4 -6 -3 -8 4 -4 13 8 62 -13 62 -27 0 -5 -8
-6 -17 -1 -10 4 -46 10 -80 12 -68 4 -75 12 -43 50 29 34 71 53 105 47 17 -3
39 -7 50 -9z m139 -62 c9 -24 2 -26 -12 -4 -7 11 -8 20 -3 20 5 0 12 -7 15
-16z m12 -171 c24 -108 11 -111 -15 -3 -12 51 -25 100 -28 109 -2 9 2 5 11 -9
8 -14 22 -57 32 -97z m164 103 c0 -3 -4 -8 -10 -11 -5 -3 -10 -1 -10 4 0 6 5
11 10 11 6 0 10 -2 10 -4z m-25 -101 c-33 -75 -65 -119 -77 -107 -6 6 3 27 27
57 20 26 43 61 51 76 25 50 25 32 -1 -26z m-378 12 c0 -7 -8 -13 -18 -13 -13
0 -15 3 -7 13 6 7 14 13 18 13 3 0 7 -6 7 -13z m4 -60 l-23 -22 17 28 c10 15
20 25 23 22 3 -3 -5 -16 -17 -28z m-101 -57 c0 -5 -2 -10 -4 -10 -3 0 -8 5
-11 10 -3 6 -1 10 4 10 6 0 11 -4 11 -10z m299 -49 c-6 -18 -8 -43 -3 -59 4
-15 7 -30 6 -34 -1 -5 3 -8 8 -8 6 0 10 -4 10 -10 0 -20 -27 -9 -38 15 -17 36
-15 87 4 113 21 31 27 23 13 -17z m-318 17 c1 -7 1 -17 0 -22 -4 -16 41 -146
50 -146 4 0 11 9 14 20 4 11 11 18 16 15 5 -4 9 2 9 11 0 10 3 15 6 11 4 -3 3
-18 0 -34 -6 -22 -9 -24 -18 -12 -7 11 -9 9 -5 -8 3 -13 2 -23 -1 -23 -28 1
-67 65 -77 126 -4 22 -9 47 -12 57 -2 9 0 17 6 17 6 0 12 -6 12 -12z m109 -53
c-4 -22 -8 -35 -9 -30 -1 6 -5 5 -9 -2 -5 -7 -12 2 -19 25 -10 31 -9 34 1 20
18 -24 23 -23 30 8 10 40 15 24 6 -21z m253 -35 c-4 -16 -8 -18 -19 -9 -16 13
-19 23 -4 14 6 -3 10 -1 10 4 0 6 4 11 9 11 5 0 7 -9 4 -20z m14 -472 c-3 -8
-6 -5 -6 6 -1 11 2 17 5 13 3 -3 4 -12 1 -19z"/>
<path d="M6730 2755 c0 -2 10 -10 23 -16 20 -11 21 -11 8 4 -13 16 -31 23 -31
12z"/>
<path d="M6810 2741 c0 -5 -12 -14 -27 -19 -19 -7 -22 -11 -10 -11 11 -1 15
-6 11 -13 -4 -7 -3 -8 5 -4 6 4 9 11 6 16 -3 5 6 12 20 16 13 3 22 10 19 15
-7 12 -24 12 -24 0z"/>
<path d="M6830 2710 c0 -4 7 -11 16 -14 8 -3 13 -10 9 -15 -3 -6 -12 -8 -20
-4 -11 4 -13 1 -9 -11 10 -27 37 -15 46 21 4 16 0 22 -18 26 -13 2 -24 1 -24
-3z"/>
<path d="M6820 2042 c0 -14 28 -23 36 -11 3 6 3 13 0 16 -3 4 -6 1 -6 -7 0
-10 -3 -10 -15 0 -9 7 -15 8 -15 2z"/>
<path d="M3311 2764 c0 -11 3 -14 6 -6 3 7 2 16 -1 19 -3 4 -6 -2 -5 -13z"/>
<path d="M6860 2440 c0 -5 5 -10 11 -10 5 0 7 5 4 10 -3 6 -8 10 -11 10 -2 0
-4 -4 -4 -10z"/>
<path d="M7323 2305 c-12 -9 -32 -30 -44 -48 -20 -28 -16 -27 27 13 27 25 51
46 53 48 2 1 0 2 -5 2 -5 0 -19 -7 -31 -15z"/>
<path d="M2615 2260 c-3 -5 -1 -10 4 -10 6 0 11 5 11 10 0 6 -2 10 -4 10 -3 0
-8 -4 -11 -10z"/>
<path d="M6906 2235 c4 -8 8 -15 10 -15 2 0 4 7 4 15 0 8 -4 15 -10 15 -5 0
-7 -7 -4 -15z"/>
<path d="M2468 2233 c7 -3 16 -2 19 1 4 3 -2 6 -13 5 -11 0 -14 -3 -6 -6z"/>
<path d="M973 2223 c9 -2 23 -2 30 0 6 3 -1 5 -18 5 -16 0 -22 -2 -12 -5z"/>
<path d="M6715 2205 c28 -13 66 -37 85 -52 l35 -27 -25 28 c-25 28 -108 76
-132 76 -7 0 10 -11 37 -25z"/>
<path d="M700 2210 c-8 -5 -10 -10 -5 -10 6 0 17 5 25 10 8 5 11 10 5 10 -5 0
-17 -5 -25 -10z"/>
<path d="M755 2191 c-11 -4 18 -6 65 -4 116 6 131 11 35 11 -44 0 -89 -3 -100
-7z"/>
<path d="M6354 2184 c-18 -14 -18 -15 4 -4 12 6 22 13 22 15 0 8 -5 6 -26 -11z"/>
<path d="M6309 2153 c-13 -16 -12 -17 4 -4 16 13 21 21 13 21 -2 0 -10 -8 -17
-17z"/>
<path d="M1175 2090 c-3 -5 -45 -21 -93 -36 -48 -14 -110 -35 -139 -45 l-52
-18 -31 37 -32 37 20 -37 20 -37 -30 -10 c-49 -17 -56 -14 -106 40 -40 43 -52
51 -84 51 -46 0 -80 -11 -73 -23 4 -5 -1 -9 -9 -9 -9 0 -16 -4 -16 -9 0 -14
38 -1 44 15 6 17 59 18 89 3 27 -14 66 -59 67 -78 0 -9 -7 -11 -21 -8 -15 4
-9 -5 19 -28 80 -69 101 -172 68 -325 -9 -41 -18 -86 -21 -100 -3 -14 2 -7 10
15 9 22 22 73 29 114 6 41 16 76 22 78 5 1 43 -24 84 -57 78 -62 128 -85 170
-77 22 4 21 4 -5 6 -33 1 -97 38 -194 111 -47 35 -61 53 -67 80 -9 46 -40 112
-64 138 -25 27 -25 32 1 32 52 0 366 105 394 131 11 11 16 19 13 19 -4 0 -10
-4 -13 -10z"/>
<path d="M6638 1923 c-19 -23 -31 -43 -24 -43 2 0 14 14 26 30 23 33 22 40 -2
13z"/>
<path d="M1050 1817 c0 -2 15 -16 33 -33 l32 -29 -29 33 c-28 30 -36 37 -36
29z"/>
<path d="M990 1776 c0 -2 8 -10 18 -17 15 -13 16 -12 3 4 -13 16 -21 21 -21
13z"/>
<path d="M6568 1753 c-1 -5 -13 -15 -24 -23 -12 -8 -49 -39 -83 -67 -50 -43
-69 -53 -99 -53 -24 0 -32 -3 -23 -9 7 -5 29 -5 48 -1 33 8 42 14 102 69 42
38 78 61 85 54 3 -3 6 3 6 15 0 22 -5 29 -12 15z"/>
<path d="M962 1700 c0 -14 2 -19 5 -12 2 6 2 18 0 25 -3 6 -5 1 -5 -13z"/>
<path d="M6440 1685 c0 -8 4 -15 10 -15 5 0 7 7 4 15 -4 8 -8 15 -10 15 -2 0
-4 -7 -4 -15z"/>
<path d="M7255 1129 l-40 -18 32 -1 c22 0 36 6 43 20 6 11 9 20 8 19 -2 0 -21
-9 -43 -20z"/>
<path d="M140 1120 c27 -21 90 -27 90 -9 0 6 -8 8 -20 4 -10 -3 -33 1 -49 9
-41 22 -51 20 -21 -4z"/>
<path d="M6896 1132 c-3 -5 1 -15 9 -22 16 -14 20 -3 6 19 -5 8 -11 9 -15 3z"/>
<path d="M7321 1124 c-18 -8 -31 -18 -28 -21 10 -10 55 6 61 22 3 8 4 15 3 14
-1 0 -17 -7 -36 -15z"/>
<path d="M3 1117 c2 -7 14 -14 26 -15 28 -4 20 13 -9 21 -14 3 -20 1 -17 -6z"/>
<path d="M63 1115 c0 -11 11 -15 41 -14 l41 1 -35 13 c-46 18 -47 18 -47 0z"/>
<path d="M7155 1120 c-3 -5 1 -10 9 -10 9 0 16 5 16 10 0 6 -4 10 -9 10 -6 0
-13 -4 -16 -10z"/>
<path d="M255 1110 c3 -5 11 -10 16 -10 6 0 7 5 4 10 -3 6 -11 10 -16 10 -6 0
-7 -4 -4 -10z"/>
<path d="M877 1065 c5 -16 8 -74 8 -127 l0 -97 25 24 c14 13 45 35 70 50 27
16 35 24 20 20 -14 -4 -41 -19 -60 -34 l-35 -28 -1 81 c0 56 -6 90 -17 111
l-17 30 7 -30z"/>
<path d="M6595 1060 c3 -5 11 -10 16 -10 6 0 7 5 4 10 -3 6 -11 10 -16 10 -6
0 -7 -4 -4 -10z"/>
<path d="M180 1049 c0 -5 5 -7 10 -4 6 3 10 8 10 11 0 2 -4 4 -10 4 -5 0 -10
-5 -10 -11z"/>
<path d="M825 1012 c3 -12 12 -57 20 -100 8 -52 13 -65 14 -41 1 49 -17 141
-30 154 -8 7 -9 4 -4 -13z"/>
<path d="M1030 940 c0 -5 5 -10 11 -10 5 0 7 5 4 10 -3 6 -8 10 -11 10 -2 0
-4 -4 -4 -10z"/>
<path d="M6311 917 c-13 -21 -12 -21 5 -5 10 10 16 20 13 22 -3 3 -11 -5 -18
-17z"/>
<path d="M6617 842 c6 -94 11 -100 12 -15 1 39 -3 74 -8 77 -5 3 -7 -24 -4
-62z"/>
<path d="M6585 869 c-8 -32 -9 -67 -5 -104 2 -16 6 4 10 45 6 79 5 98 -5 59z"/>
<path d="M585 863 c6 -5 35 -32 65 -59 44 -39 48 -41 20 -10 -19 21 -48 47
-65 58 -16 12 -25 17 -20 11z"/>
<path d="M940 827 l-34 -42 42 40 c23 21 42 40 42 42 0 12 -20 -5 -50 -40z"/>
<path d="M6427 826 c-6 -16 18 -39 83 -81 60 -38 31 -3 -32 40 -45 30 -52 45
-21 45 8 0 37 -21 65 -47 28 -27 46 -39 40 -28 -31 59 -122 106 -135 71z"/>
<path d="M716 730 c6 -8 16 -24 22 -35 6 -11 12 -15 12 -8 0 7 -10 22 -22 35
-13 13 -18 17 -12 8z"/>
<path d="M762 590 c0 -91 -28 -154 -57 -130 -6 5 -21 3 -35 -5 -24 -13 -23
-14 20 -13 25 0 50 5 57 10 21 17 35 108 25 158 l-10 45 0 -65z"/>
<path d="M580 430 c0 -5 6 -10 14 -10 8 0 18 5 21 10 3 6 -3 10 -14 10 -12 0
-21 -4 -21 -10z"/>
<path d="M6841 334 c0 -11 3 -14 6 -6 3 7 2 16 -1 19 -3 4 -6 -2 -5 -13z"/>
</g>
</svg>
