<?xml version="1.0" standalone="no"?>
<!DOCTYPE svg PUBLIC "-//W3C//DTD SVG 20010904//EN"
 "http://www.w3.org/TR/2001/REC-SVG-20010904/DTD/svg10.dtd">
<svg version="1.0" xmlns="http://www.w3.org/2000/svg"
 width="500.000000pt" height="500.000000pt" viewBox="0 0 500.000000 500.000000"
 preserveAspectRatio="xMidYMid meet">

<g transform="translate(0.000000,500.000000) scale(0.100000,-0.100000)"
fill="#000000" stroke="none">
<path d="M1673 4103 c15 -2 37 -2 50 0 12 2 0 4 -28 4 -27 0 -38 -2 -22 -4z"/>
<path d="M1803 4103 c15 -2 37 -2 50 0 12 2 0 4 -28 4 -27 0 -38 -2 -22 -4z"/>
<path d="M1608 4093 c7 -3 16 -2 19 1 4 3 -2 6 -13 5 -11 0 -14 -3 -6 -6z"/>
<path d="M1888 4093 c6 -2 18 -2 25 0 6 3 1 5 -13 5 -14 0 -19 -2 -12 -5z"/>
<path d="M1955 4080 c11 -5 27 -9 35 -9 9 0 8 4 -5 9 -11 5 -27 9 -35 9 -9 0
-8 -4 5 -9z"/>
<path d="M2050 4050 c8 -5 20 -10 25 -10 6 0 3 5 -5 10 -8 5 -19 10 -25 10 -5
0 -3 -5 5 -10z"/>
<path d="M3600 4021 c0 -4 16 -15 35 -24 19 -9 35 -24 35 -33 0 -14 -7 -16
-47 -10 -57 8 -51 -2 12 -18 42 -10 48 -16 61 -51 25 -74 87 -104 187 -91 29
4 65 7 81 7 37 -1 96 27 96 45 0 8 -10 14 -22 14 -33 1 -108 37 -108 53 0 7
16 28 35 47 19 19 35 38 35 42 0 12 -126 10 -154 -3 -21 -10 -29 -8 -52 10
-32 25 -57 27 -93 5 -24 -14 -30 -15 -64 0 -20 8 -37 12 -37 7z m197 -40 c13
-14 23 -21 23 -14 0 16 56 33 113 33 l49 0 -31 -32 c-17 -17 -31 -35 -31 -39
0 -4 -19 -9 -41 -11 -40 -3 -37 -5 65 -40 98 -33 105 -37 77 -43 -18 -4 -28
-11 -25 -17 4 -7 -4 -8 -23 -4 -16 4 -49 2 -74 -3 -58 -13 -130 3 -164 36 -14
15 -25 34 -23 42 1 9 -4 27 -11 39 -17 31 -6 71 22 81 29 11 47 4 74 -28z"/>
<path d="M3720 3970 c0 -5 5 -10 10 -10 6 0 10 5 10 10 0 6 -4 10 -10 10 -5 0
-10 -4 -10 -10z"/>
<path d="M673 3992 c-18 -10 -48 -32 -67 -50 -43 -40 -80 -42 -118 -5 -32 31
-38 18 -8 -20 12 -14 17 -32 14 -42 -6 -15 -8 -14 -28 2 -66 59 -73 54 -16
-12 40 -46 44 -56 54 -130 11 -83 87 -136 191 -134 l60 2 -66 7 c-106 13 -150
45 -165 120 -5 24 -4 31 4 26 17 -10 15 -2 -8 42 -19 37 -19 78 1 66 5 -3 6 2
3 10 -9 24 41 32 72 11 25 -16 25 -16 14 5 -9 16 -8 25 1 36 18 22 61 50 87
59 21 6 23 5 13 -13 -6 -12 -11 -49 -11 -84 0 -35 -6 -74 -13 -88 -11 -22 -10
-27 13 -47 l25 -23 -35 6 c-36 5 -33 4 134 -63 48 -20 46 -33 -5 -33 -10 0
-19 -5 -19 -11 0 -12 58 -2 78 13 20 17 14 23 -31 36 -64 19 -143 82 -140 113
8 82 22 177 28 197 9 28 -15 29 -62 4z"/>
<path d="M2150 4007 c0 -3 20 -17 45 -31 58 -35 142 -117 188 -186 42 -63 50
-61 10 3 -35 56 -148 166 -201 195 -23 13 -42 21 -42 19z"/>
<path d="M1299 3933 l-34 -38 38 34 c34 33 42 41 34 41 -2 0 -19 -17 -38 -37z"/>
<path d="M1955 3870 c-3 -5 -1 -10 4 -10 6 0 11 5 11 10 0 6 -2 10 -4 10 -3 0
-8 -4 -11 -10z"/>
<path d="M3135 3780 c136 -9 189 -22 286 -71 239 -119 392 -357 409 -639 l7
-115 1 94 c2 114 -16 195 -68 306 -127 274 -372 438 -646 433 l-99 -1 110 -7z"/>
<path d="M2988 3773 c6 -2 18 -2 25 0 6 3 1 5 -13 5 -14 0 -19 -2 -12 -5z"/>
<path d="M2948 3763 c7 -3 16 -2 19 1 4 3 -2 6 -13 5 -11 0 -14 -3 -6 -6z"/>
<path d="M2870 3740 c-8 -5 -10 -10 -5 -10 6 0 17 5 25 10 8 5 11 10 5 10 -5
0 -17 -5 -25 -10z"/>
<path d="M1454 3677 c-102 -26 -214 -79 -264 -124 -37 -34 -50 -40 -50 -27 0
25 -6 14 -14 -25 -6 -34 -6 -34 14 -16 20 18 20 18 14 -16 -4 -19 -14 -42 -23
-52 -12 -14 -16 -43 -17 -123 l-1 -104 59 -56 c32 -31 58 -63 58 -72 0 -24 21
-95 26 -90 2 3 -6 56 -18 120 -12 66 -18 126 -14 142 l7 28 20 -26 c11 -14 17
-31 13 -38 -5 -8 -2 -9 10 -5 10 4 38 7 63 7 45 0 46 0 28 20 -18 19 -17 20
13 26 35 7 39 15 17 34 -9 8 -28 10 -50 6 l-35 -7 1 93 c0 68 3 87 10 70 28
-71 98 -139 174 -170 26 -11 23 -6 -20 34 -40 37 -42 41 -13 20 21 -15 73 -43
115 -64 63 -29 93 -38 157 -42 78 -5 78 -5 57 -24 -20 -18 -30 -53 -12 -42 5
4 5 -10 0 -33 -10 -43 2 -94 27 -122 27 -29 89 -25 119 7 32 35 35 110 6 145
-19 23 -20 23 -15 3 7 -25 -13 -41 -29 -25 -7 7 -5 16 8 31 10 11 22 20 26 20
16 0 71 -54 84 -84 l13 -31 1 35 c1 41 -19 74 -63 102 -30 19 -30 20 -4 14 14
-3 34 -8 45 -12 10 -3 2 4 -17 15 -49 28 -33 26 33 -5 49 -22 57 -29 63 -61 4
-19 4 -62 1 -95 l-5 -60 25 24 c21 18 25 20 20 5 -8 -20 0 -18 49 19 18 13 45
44 60 69 34 53 66 59 110 22 54 -47 40 -170 -24 -214 -18 -11 -47 -18 -83 -19
-53 -1 -57 -3 -104 -53 -35 -37 -74 -64 -139 -96 -122 -60 -222 -79 -380 -73
-67 2 -107 1 -91 -3 17 -4 54 -7 83 -8 45 -1 52 -4 52 -21 0 -11 -8 -25 -18
-31 -13 -8 -17 -20 -14 -44 4 -31 2 -33 -35 -39 -21 -4 -49 -10 -62 -13 -18
-4 -22 -3 -16 7 5 8 -1 7 -16 -3 -13 -8 -78 -22 -144 -32 -66 -10 -128 -22
-137 -27 -22 -11 -22 -62 -3 -193 15 -93 14 -74 -2 106 -7 81 -8 80 135 103
149 23 157 18 13 -9 -68 -13 -128 -28 -134 -34 -10 -10 16 -290 30 -328 5 -13
2 -15 -11 -10 -12 5 -16 3 -13 -5 2 -7 -5 -29 -15 -49 -38 -73 -20 -206 30
-234 18 -9 21 -14 11 -15 -18 0 -79 63 -79 82 0 6 -3 9 -6 6 -8 -8 20 -59 43
-80 11 -10 35 -19 55 -20 35 -3 36 -5 42 -50 4 -25 4 -66 1 -90 -3 -33 -3 -37
4 -18 l9 25 1 -27 c1 -14 4 -35 7 -45 5 -15 4 -15 -5 -3 -9 13 -11 13 -11 -2
0 -9 14 -27 31 -41 31 -24 31 -24 14 -56 -9 -18 -15 -35 -12 -37 2 -2 12 14
22 36 10 22 22 40 26 40 19 0 19 -23 -1 -66 -11 -26 -47 -116 -81 -200 -46
-116 -64 -152 -75 -147 -18 7 -16 13 41 158 24 61 46 119 50 130 13 44 -49
-96 -82 -185 -20 -52 -41 -101 -47 -109 -8 -11 -8 -13 2 -7 23 14 202 -55 257
-98 11 -9 -18 2 -64 24 -47 22 -99 40 -117 40 -34 0 -60 -22 -48 -41 4 -8 3
-9 -4 -5 -7 4 -12 4 -12 -1 0 -4 -10 -19 -21 -33 l-20 -25 4 45 c3 25 8 54 11
65 3 11 0 7 -8 -10 -8 -16 -15 -49 -16 -72 0 -40 -2 -43 -26 -43 -23 0 -25 -2
-13 -16 12 -15 8 -16 -41 -14 -65 3 -116 -14 -132 -44 -11 -21 -10 -21 14 2
47 42 102 21 228 -88 44 -38 106 -83 138 -101 68 -38 67 -38 60 -44 -12 -12
-140 74 -236 157 -30 26 -74 55 -99 64 -40 16 -49 16 -71 3 -14 -8 -29 -24
-33 -37 -22 -59 184 -199 330 -224 51 -9 77 -9 89 -2 16 10 29 44 64 169 10
37 21 53 41 63 15 7 32 23 38 35 l12 22 -23 -20 -23 -20 13 24 c7 14 10 41 7
63 -4 32 -3 37 8 28 8 -7 17 -21 21 -32 5 -16 13 -7 45 48 22 37 38 69 35 71
-2 2 -17 -18 -33 -46 -26 -48 -43 -64 -43 -41 0 5 15 33 33 62 19 29 55 94 82
143 104 194 127 235 137 235 5 0 6 -10 2 -22 -6 -20 -5 -21 8 -10 13 10 16 9
21 -5 3 -10 38 -101 77 -203 39 -102 80 -213 91 -247 18 -58 42 -88 94 -118
16 -10 15 -16 -19 -88 -49 -101 -45 -128 22 -154 70 -27 203 -24 259 5 44 23
48 30 57 102 4 32 3 39 -3 25 -8 -16 -10 -9 -10 30 -1 28 -4 61 -7 75 -5 21
-4 22 6 10 10 -13 11 -12 6 3 -3 10 -6 21 -6 23 0 3 -5 2 -11 -1 -5 -4 -3 10
6 31 15 36 15 37 -3 21 -17 -15 -18 -15 -21 11 -2 15 -4 36 -5 47 -1 19 -3 19
-55 -7 -30 -16 -63 -28 -75 -27 -12 0 0 7 26 16 54 18 118 68 103 80 -13 9
-69 196 -91 303 -18 87 -27 250 -13 250 5 0 9 -4 9 -10 0 -5 9 -1 21 11 18 18
19 25 10 45 -13 29 -12 29 -108 0 -193 -60 -346 -86 -498 -86 -60 0 -116 4
-123 9 -17 10 205 25 231 16 10 -5 17 -2 17 5 0 9 14 11 53 7 29 -3 71 -1 92
3 96 19 177 44 182 56 2 7 -3 73 -11 148 -20 173 -20 177 0 148 8 -12 24 -22
34 -22 19 0 90 29 100 41 3 3 20 14 38 23 17 9 32 19 32 21 0 3 -17 -3 -38
-14 l-37 -19 0 88 c0 84 -1 90 -32 128 l-32 39 22 12 c14 8 16 10 4 6 -63 -18
-62 -19 -92 36 -15 29 -31 77 -35 108 l-7 56 -2 -60 c-3 -80 -15 -49 -31 80
-13 104 -22 135 -43 135 -30 1 -36 15 -23 54 12 36 12 39 -11 62 -13 13 -21
28 -18 34 3 5 33 24 66 41 33 18 85 57 115 87 52 51 59 54 108 55 87 3 146 61
146 144 0 23 5 45 10 48 6 3 10 11 10 16 0 6 -4 7 -10 4 -13 -8 -13 -10 10 60
18 53 20 55 16 20 -3 -24 -2 -34 3 -25 13 24 34 120 27 127 -3 4 -6 -5 -6 -18
-1 -20 -4 -17 -21 18 -12 23 -58 78 -103 121 -108 103 -248 187 -398 237 -108
37 -120 38 -263 41 -99 2 -167 -1 -201 -9z m446 -448 c19 -5 14 -7 -20 -6 -25
1 -51 8 -58 14 -11 10 -7 11 20 6 18 -3 44 -10 58 -14z m51 -560 c18 -36 19
-45 8 -65 -9 -18 -21 -24 -48 -24 -20 0 -53 -3 -75 -7 -33 -5 -38 -4 -35 12 3
10 20 24 43 32 51 17 76 40 76 70 0 33 7 29 31 -18z m-43 14 c-2 -11 -29 -31
-65 -48 -49 -24 -63 -35 -63 -52 0 -28 -26 -31 -35 -4 -3 10 -17 22 -30 25
-36 9 -31 29 5 24 17 -3 30 -1 30 3 0 3 9 9 21 12 13 4 18 10 14 18 -6 9 0 10
19 7 15 -3 24 -3 20 1 -3 3 11 11 33 18 52 16 55 16 51 -4z m-206 -95 l31 -27
-26 -6 c-46 -12 -72 -3 -75 28 -2 15 1 27 7 27 5 0 13 10 17 23 7 21 8 21 12
2 2 -11 17 -32 34 -47z m171 -35 c-7 -2 -21 -2 -30 0 -10 3 -4 5 12 5 17 0 24
-2 18 -5z m129 -68 c28 -222 33 -275 27 -275 -4 0 -16 8 -27 18 -17 14 -24 41
-36 142 -22 172 -21 182 7 178 19 -3 23 -11 29 -63z m-479 18 c-7 -2 -19 -2
-25 0 -7 3 -2 5 12 5 14 0 19 -2 13 -5z m364 -9 c-3 -3 -12 -4 -19 -1 -8 3 -5
6 6 6 11 1 17 -2 13 -5z m-27 -51 c0 -43 -5 -41 -13 5 -4 18 -2 32 3 32 6 0
10 -16 10 -37z m-139 8 c-10 -7 -11 -13 -2 -30 14 -26 19 -26 45 -3 21 17 21
17 3 -4 -16 -20 -16 -21 0 -36 22 -18 57 -12 49 8 -3 9 -1 12 5 9 6 -4 8 -13
5 -21 -3 -8 3 -23 14 -34 22 -22 13 -28 -9 -7 -12 10 -13 9 -7 -7 6 -16 4 -17
-10 -5 -10 8 -12 15 -5 17 20 7 11 24 -10 19 -15 -4 -32 6 -65 39 -44 45 -49
64 -16 64 13 0 14 -2 3 -9z m-188 -28 c-7 -2 -19 -2 -25 0 -7 3 -2 5 12 5 14
0 19 -2 13 -5z m-286 -45 c-3 -7 -5 -2 -5 12 0 14 2 19 5 13 2 -7 2 -19 0 -25z
m131 -30 c-7 -13 -11 -30 -10 -40 2 -9 -1 -19 -5 -21 -13 -8 -8 35 6 61 6 12
14 22 17 22 2 0 -1 -10 -8 -22z m487 2 c3 -5 1 -10 -4 -10 -6 0 -11 5 -11 10
0 6 2 10 4 10 3 0 8 -4 11 -10z m-530 -10 c3 -6 -1 -7 -9 -4 -18 7 -21 14 -7
14 6 0 13 -4 16 -10z m351 -11 c5 -8 9 -8 14 1 6 9 10 6 15 -9 8 -27 -2 -41
-16 -21 -8 11 -12 12 -16 2 -7 -17 -23 -5 -23 19 0 21 15 26 26 8z m-429 -31
c-3 -7 -5 -2 -5 12 0 14 2 19 5 13 2 -7 2 -19 0 -25z m311 14 c14 11 15 10 9
-5 -4 -10 -7 -23 -7 -28 0 -6 -4 -8 -9 -5 -5 4 -11 3 -14 -1 -2 -5 -3 -3 -1 3
1 6 -2 17 -6 24 -5 8 -6 19 -2 25 4 6 8 2 10 -8 3 -15 6 -16 20 -5z m71 -9
c11 -24 11 -25 -4 -13 -15 12 -18 12 -26 -3 -6 -9 -14 -17 -19 -17 -5 0 -1 13
8 30 21 37 26 37 41 3z m-121 -16 c4 -31 -20 -46 -43 -27 -19 16 -19 25 1 45
22 21 38 14 42 -18z m-73 13 c3 -5 1 -10 -4 -10 -6 0 -11 5 -11 10 0 6 2 10 4
10 3 0 8 -4 11 -10z m11 -47 c-7 -8 -46 22 -46 34 0 8 10 4 25 -9 14 -12 23
-23 21 -25z m642 -22 c12 -21 22 -48 22 -60 0 -11 5 -21 11 -21 17 0 39 -66
39 -119 0 -46 -2 -50 -28 -55 -32 -8 -164 9 -207 26 -32 12 -75 46 -75 59 0 5
15 6 33 4 l32 -5 -32 10 c-31 10 -50 40 -38 60 4 6 28 8 58 5 51 -4 51 -4 15
6 -42 12 -46 23 -21 51 20 22 66 23 123 3 53 -19 53 -19 40 4 -12 23 -13 71
-2 71 5 0 18 -17 30 -39z m-831 -28 c-3 -10 -5 -4 -5 12 0 17 2 24 5 18 2 -7
2 -21 0 -30z m368 -11 c-2 -2 -14 4 -27 12 -29 19 -46 9 -20 -11 15 -13 15
-13 -6 -3 -18 9 -20 14 -12 31 11 19 11 19 39 -3 16 -13 27 -24 26 -26z m-330
-22 c3 -5 1 -10 -4 -10 -6 0 -11 5 -11 10 0 6 2 10 4 10 3 0 8 -4 11 -10z
m280 -8 c-3 -3 -11 0 -18 7 -9 10 -8 11 6 5 10 -3 15 -9 12 -12z m31 3 c-7
-18 5 -20 23 -2 10 10 11 9 6 -5 -7 -19 -35 -33 -35 -17 0 6 -5 7 -11 4 -6 -4
-5 2 3 14 15 24 23 28 14 6z m570 0 c65 -45 72 -206 12 -244 -26 -16 -31 -10
-18 23 18 48 12 129 -14 179 -29 58 -22 72 20 42z m-903 -33 c4 -21 3 -31 -3
-27 -6 3 -10 20 -10 37 0 38 5 34 13 -10z m57 16 c0 -18 -2 -20 -9 -8 -6 8 -7
18 -5 22 9 14 14 9 14 -14z m240 -15 c0 -7 -39 17 -46 28 -3 6 5 3 20 -6 14
-10 26 -19 26 -22z m100 23 c0 -2 -7 -7 -16 -10 -8 -3 -12 -2 -9 4 6 10 25 14
25 6z m-139 -23 c13 -16 12 -17 -3 -4 -10 7 -18 15 -18 17 0 8 8 3 21 -13z
m-26 -20 c-4 -10 -8 -31 -10 -46 -1 -16 -9 -35 -18 -44 -15 -15 -16 -15 -10 5
3 12 8 22 12 22 3 0 7 11 8 25 4 47 6 55 16 55 5 0 6 -8 2 -17z m50 -3 c-3 -5
-14 -10 -23 -9 -14 0 -13 2 3 9 27 11 27 11 20 0z m52 4 c-3 -3 -12 -4 -19 -1
-8 3 -5 6 6 6 11 1 17 -2 13 -5z m38 -3 c-3 -5 -1 -12 4 -15 14 -9 32 -66 20
-66 -5 0 -9 9 -9 20 0 11 -9 28 -20 37 -14 13 -16 19 -7 25 16 10 19 10 12 -1z
m47 -3 c-16 -16 -15 -33 1 -19 8 6 17 8 20 4 8 -7 -2 -53 -15 -70 -5 -7 -5
-14 2 -18 5 -3 10 -11 10 -18 0 -6 -7 -2 -15 9 -8 11 -15 14 -15 7 0 -7 -5
-13 -12 -13 -6 0 -2 10 9 23 11 12 23 35 27 51 6 25 5 28 -8 17 -12 -10 -17
-8 -26 10 -7 12 -8 19 -2 15 6 -3 13 -2 17 4 3 5 9 10 13 10 3 0 1 -5 -6 -12z
m-408 -34 c15 -14 14 -17 -6 -35 l-23 -20 33 16 c66 32 102 -20 43 -60 -17
-11 -28 -21 -26 -24 3 -2 16 4 31 14 17 11 29 14 36 7 25 -25 -28 -85 -105
-117 -36 -15 -37 -14 -53 10 -35 54 -30 160 11 201 28 28 38 30 59 8z m351 -2
c-3 -3 -11 0 -18 7 -9 10 -8 11 6 5 10 -3 15 -9 12 -12z m-96 -13 c-6 -12 -9
-30 -6 -40 3 -10 1 -17 -4 -13 -5 3 -9 12 -9 20 0 17 18 54 26 54 2 0 0 -9 -7
-21z m36 12 c3 -5 1 -12 -5 -16 -5 -3 -10 1 -10 9 0 18 6 21 15 7z m40 -29
c-3 -3 -11 0 -18 7 -9 10 -8 11 6 5 10 -3 15 -9 12 -12z m115 -12 c0 -11 -4
-20 -9 -20 -5 0 -7 9 -4 20 3 11 7 20 9 20 2 0 4 -9 4 -20z m-224 -46 c-4 -9
-9 -15 -11 -12 -3 3 -3 13 1 22 4 9 9 15 11 12 3 -3 3 -13 -1 -22z m130 1
c-13 -20 -12 -23 12 -37 l26 -16 -26 1 c-15 1 -24 4 -22 6 2 2 -3 13 -13 23
-15 17 -15 18 2 18 10 0 15 5 12 13 -3 8 1 14 9 14 12 0 12 -3 0 -22z m-105
-9 c-10 -11 -10 -20 -1 -37 10 -17 14 -19 21 -8 8 11 9 9 7 -6 -2 -12 2 -19
10 -17 8 1 11 -2 6 -9 -4 -8 -18 0 -39 22 -26 28 -30 37 -21 52 6 9 15 17 20
17 4 0 3 -6 -3 -14z m33 2 c-5 -8 -2 -9 10 -5 10 4 15 3 11 -3 -3 -6 -1 -10 6
-10 7 0 10 -3 7 -6 -10 -9 -49 16 -43 27 4 5 8 9 11 9 3 0 2 -5 -2 -12z m326
-19 c0 -6 -4 -7 -10 -4 -5 3 -10 11 -10 16 0 6 5 7 10 4 6 -3 10 -11 10 -16z
m-188 4 c-6 -3 -9 -10 -5 -16 4 -7 -1 -6 -10 2 -21 17 -21 17 6 18 12 0 16 -1
9 -4z m-92 -28 c0 -7 -30 -13 -34 -7 -3 4 4 9 15 9 10 1 19 0 19 -2z m454
-143 c9 -74 16 -138 16 -143 0 -5 -11 -9 -25 -9 -14 0 -25 3 -25 8 0 4 -7 65
-15 137 -15 122 -15 130 2 142 9 7 20 10 24 6 5 -5 15 -68 23 -141z m-438 116
c4 -7 4 -10 -1 -6 -4 4 -16 -3 -27 -15 l-19 -22 17 28 c19 31 20 32 30 15z
m39 -6 c-3 -3 -11 0 -18 7 -9 10 -8 11 6 5 10 -3 15 -9 12 -12z m-40 -60 c-3
-3 -11 0 -18 7 -9 10 -8 11 6 5 10 -3 15 -9 12 -12z m232 -22 c-7 -17 -13 -26
-15 -21 -3 10 15 51 22 51 3 0 -1 -14 -7 -30z m-530 -72 c-2 -13 -4 -5 -4 17
-1 22 1 32 4 23 2 -10 2 -28 0 -40z m518 22 c3 -6 -1 -7 -9 -4 -18 7 -21 14
-7 14 6 0 13 -4 16 -10z m-44 -23 c-10 -9 -11 -8 -5 6 3 10 9 15 12 12 3 -3 0
-11 -7 -18z m-383 -12 c-3 -3 -9 2 -12 12 -6 14 -5 15 5 6 7 -7 10 -15 7 -18z
m435 8 c3 -5 -5 -8 -18 -8 -13 0 -21 3 -18 8 2 4 10 7 18 7 8 0 16 -3 18 -7z
m7 -37 c0 -2 -9 -6 -20 -9 -11 -3 -18 -1 -14 4 5 9 34 13 34 5z m-523 -28 c-3
-8 -6 -5 -6 6 -1 11 2 17 5 13 3 -3 4 -12 1 -19z m113 -2 c0 -3 -4 -8 -10 -11
-5 -3 -10 -1 -10 4 0 6 5 11 10 11 6 0 10 -2 10 -4z m482 -560 c37 -93 66
-171 63 -174 -13 -13 -58 89 -121 271 -62 180 -37 138 58 -97z m-659 -182 c28
-9 44 -20 40 -26 -3 -7 -1 -8 6 -4 15 10 43 -13 34 -27 -3 -5 -1 -7 4 -4 15
10 63 -31 63 -53 0 -10 -5 -31 -10 -45 -10 -27 -10 -27 -38 27 -28 53 -37 57
-79 44 -18 -6 -23 -1 -33 29 -7 21 -22 41 -36 47 -18 8 -21 14 -12 20 7 4 13
8 14 8 0 0 21 -7 47 -16z m837 -35 l75 -7 -82 1 c-46 1 -83 -1 -83 -6 0 -4 7
-22 16 -40 l17 -31 -24 16 c-13 8 -32 36 -41 62 l-18 46 33 -17 c17 -9 66 -20
107 -24z m-922 14 c-10 -2 -26 -2 -35 0 -10 3 -2 5 17 5 19 0 27 -2 18 -5z
m1132 -117 c0 -20 -13 -27 -30 -15 -13 8 -13 10 0 19 21 14 30 12 30 -4z
m-210 -19 c0 -2 -10 -12 -21 -23 -22 -19 -22 -19 -10 4 10 18 31 31 31 19z
m-719 -88 l-10 -24 0 26 c-1 14 2 29 6 33 12 12 14 -9 4 -35z m656 -32 c-7
-20 -15 -37 -19 -37 -11 0 -10 6 7 47 19 46 27 40 12 -10z m163 -86 c36 0 83
6 105 14 50 18 57 12 13 -11 -48 -25 -171 -30 -241 -10 -74 22 -74 37 1 20 31
-8 86 -14 122 -13z"/>
<path d="M1482 2298 c-18 -18 -14 -28 8 -28 11 0 20 6 20 14 0 21 -15 27 -28
14z"/>
<path d="M2713 3648 c-78 -67 -123 -125 -164 -208 -43 -90 -31 -83 16 8 27 54
61 100 116 155 42 42 75 77 73 77 -2 0 -20 -15 -41 -32z"/>
<path d="M1161 3654 c0 -11 3 -14 6 -6 3 7 2 16 -1 19 -3 4 -6 -2 -5 -13z"/>
<path d="M1151 3614 c0 -11 3 -14 6 -6 3 7 2 16 -1 19 -3 4 -6 -2 -5 -13z"/>
<path d="M768 3613 c7 -3 16 -2 19 1 4 3 -2 6 -13 5 -11 0 -14 -3 -6 -6z"/>
<path d="M1142 3570 c0 -14 2 -19 5 -12 2 6 2 18 0 25 -3 6 -5 1 -5 -13z"/>
<path d="M2464 3485 c0 -60 1 -84 3 -52 2 32 2 81 0 110 -2 29 -3 3 -3 -58z"/>
<path d="M4044 3555 c-12 -13 -20 -26 -17 -29 11 -10 -50 -84 -83 -99 -54 -26
-38 -42 43 -42 46 0 76 -5 89 -15 18 -14 18 -14 2 6 -10 11 -18 26 -18 33 0 9
-6 8 -22 -3 -14 -10 -43 -16 -73 -15 -43 0 -47 2 -30 12 11 7 39 31 62 54 29
29 43 38 47 28 3 -8 20 -21 38 -31 l33 -16 -32 34 c-49 51 -40 98 18 98 17 0
35 -9 47 -25 15 -18 21 -21 25 -11 4 10 15 12 49 5 24 -4 61 -8 82 -9 39 0 39
0 20 -21 -24 -27 -72 -52 -84 -44 -6 3 -10 -3 -10 -15 0 -12 -9 -24 -22 -30
-19 -7 -14 -9 25 -9 55 -1 59 -10 16 -35 -17 -10 -28 -20 -25 -23 9 -9 71 32
71 47 0 8 -10 17 -23 20 -32 7 -30 22 4 39 36 17 84 61 84 76 0 7 -20 12 -52
12 -78 -1 -140 8 -165 21 -35 19 -76 14 -99 -13z"/>
<path d="M2849 3396 c-116 -40 -239 -222 -270 -400 -11 -65 -8 -188 7 -250 5
-21 4 -27 -5 -22 -6 4 -11 1 -11 -6 -1 -7 -9 3 -20 22 -11 19 -19 31 -20 25 0
-5 10 -26 22 -45 12 -19 29 -51 39 -70 17 -34 17 -29 14 174 -1 131 1 203 7
194 7 -9 8 -3 4 17 -8 50 71 202 145 275 55 55 88 72 81 41 -1 -7 2 -10 8 -6
8 5 7 11 -1 21 -10 12 -4 14 37 14 27 -1 60 -7 73 -14 23 -13 23 -14 5 -24
-25 -15 -9 -15 18 -1 15 8 23 8 32 -2 8 -9 8 -10 -3 -4 -9 5 -12 4 -7 -3 4 -6
14 -8 23 -5 9 4 21 -1 29 -11 6 -10 15 -17 18 -17 3 1 5 -2 4 -6 -2 -5 -9 -7
-17 -6 -9 1 -10 -2 -2 -10 8 -8 14 -8 22 0 17 17 56 -8 123 -77 55 -56 57 -60
30 -54 -37 7 -78 -20 -54 -36 8 -5 28 -10 43 -10 45 0 85 -27 117 -78 16 -25
27 -48 26 -50 -2 -2 -19 6 -37 17 -60 37 -149 17 -179 -40 -7 -12 -8 -19 -2
-15 7 4 8 -15 5 -53 -5 -57 -4 -62 25 -90 60 -61 139 -27 149 63 5 38 2 53
-16 76 -27 38 -27 42 4 28 28 -12 65 -65 65 -92 0 -19 19 -22 21 -3 1 6 7 -6
14 -28 21 -62 19 -183 -4 -225 -81 -152 -587 -187 -754 -52 l-32 26 29 -31
c19 -21 26 -38 22 -49 -5 -14 -4 -15 9 -4 12 10 16 9 21 -5 5 -12 9 -14 15 -4
6 10 14 8 36 -6 15 -10 41 -19 58 -20 16 -1 68 -5 115 -10 105 -9 245 8 355
43 44 14 88 26 97 27 21 2 101 67 126 103 11 15 27 43 36 62 9 19 11 26 4 16
-7 -11 -25 -33 -40 -50 l-26 -31 19 59 c11 32 18 60 16 63 -3 2 -13 -20 -22
-49 -15 -45 -70 -138 -82 -138 -2 0 6 18 17 40 25 49 27 168 5 255 -55 211
-242 433 -438 520 -70 31 -105 36 -148 21z m451 -481 c0 -15 -6 -25 -14 -25
-19 0 -27 25 -13 39 18 18 27 13 27 -14z"/>
<path d="M2452 3340 c0 -19 2 -27 5 -17 2 9 2 25 0 35 -3 9 -5 1 -5 -18z"/>
<path d="M2925 3360 c3 -5 14 -10 23 -10 15 0 15 2 2 10 -20 13 -33 13 -25 0z"/>
<path d="M2496 3302 c-9 -32 -16 -67 -15 -78 0 -10 9 14 20 55 10 41 17 76 15
78 -2 2 -11 -23 -20 -55z"/>
<path d="M1090 3238 c0 -9 5 -20 10 -23 13 -8 13 5 0 25 -8 13 -10 13 -10 -2z"/>
<path d="M2474 3085 c0 -66 1 -92 3 -57 2 34 2 88 0 120 -2 31 -3 3 -3 -63z"/>
<path d="M1338 3169 c-43 -16 -85 -99 -61 -122 3 -4 14 10 24 30 l18 38 -6
-46 c-10 -85 44 -146 103 -118 51 25 58 55 39 164 -2 11 -4 23 -4 27 -1 10
-57 38 -73 37 -7 0 -25 -5 -40 -10z m102 -79 c0 -11 -7 -20 -15 -20 -8 0 -15
9 -15 20 0 11 7 20 15 20 8 0 15 -9 15 -20z"/>
<path d="M2242 3104 c-25 -18 -29 -39 -7 -48 21 -8 19 -30 -5 -51 -37 -33 -16
-62 36 -49 28 7 31 22 8 39 -14 10 -15 14 -3 33 11 17 11 26 2 41 -20 32 13
35 36 3 11 -15 21 -22 21 -16 0 16 -39 64 -54 64 -6 0 -22 -7 -34 -16z"/>
<path d="M2680 3091 c-45 -45 -39 -68 10 -34 13 9 40 19 59 23 50 8 48 34 -2
38 -30 3 -43 -2 -67 -27z"/>
<path d="M1030 3006 c0 -2 8 -10 18 -17 15 -13 16 -12 3 4 -13 16 -21 21 -21
13z"/>
<path d="M2685 2971 c-52 -31 -76 -81 -59 -125 9 -22 24 -20 24 4 0 25 21 70
32 70 5 0 6 -10 2 -22 -23 -66 11 -131 69 -136 54 -5 87 31 87 94 0 109 -75
165 -155 115z m131 -62 c10 -17 -13 -36 -27 -22 -12 12 -4 33 11 33 5 0 12 -5
16 -11z"/>
<path d="M1608 2973 c7 -3 16 -2 19 1 4 3 -2 6 -13 5 -11 0 -14 -3 -6 -6z"/>
<path d="M1237 2950 c6 -9 13 -38 16 -65 l3 -50 2 51 c2 39 -2 55 -15 65 -16
12 -17 12 -6 -1z"/>
<path d="M2481 2939 c0 -13 4 -33 9 -44 7 -14 8 -8 3 20 -7 46 -13 59 -12 24z"/>
<path d="M3821 2934 c0 -11 3 -14 6 -6 3 7 2 16 -1 19 -3 4 -6 -2 -5 -13z"/>
<path d="M1613 2913 c-59 -4 -63 -6 -63 -28 0 -36 26 -55 75 -55 72 0 95 14
95 55 0 30 -3 35 -22 33 -13 -1 -51 -3 -85 -5z m74 -30 c-4 -3 -1 -13 6 -22
11 -14 10 -14 -5 -2 -16 12 -16 31 -1 31 4 0 3 -3 0 -7z m-57 -7 c0 -2 -9 -6
-20 -9 -11 -3 -18 -1 -14 4 5 9 34 13 34 5z m0 -20 c0 -2 -7 -7 -16 -10 -8 -3
-12 -2 -9 4 6 10 25 14 25 6z m45 -6 c3 -5 1 -10 -4 -10 -6 0 -11 5 -11 10 0
6 2 10 4 10 3 0 8 -4 11 -10z"/>
<path d="M4108 2903 c7 -3 16 -2 19 1 4 3 -2 6 -13 5 -11 0 -14 -3 -6 -6z"/>
<path d="M2532 2860 c0 -14 2 -19 5 -12 2 6 2 18 0 25 -3 6 -5 1 -5 -13z"/>
<path d="M2501 2854 c0 -11 3 -14 6 -6 3 7 2 16 -1 19 -3 4 -6 -2 -5 -13z"/>
<path d="M4146 2809 c-11 -36 -16 -93 -16 -180 0 -196 -36 -288 -158 -401 -51
-47 -165 -118 -188 -118 -5 0 -21 27 -36 60 l-27 60 73 73 c110 108 157 222
154 372 l-1 70 -7 -80 c-9 -102 -34 -188 -72 -247 -62 -98 -197 -200 -343
-259 l-70 -28 -5 81 c-6 92 -4 90 -96 107 -46 9 -120 8 -314 -4 -140 -9 -256
-18 -259 -21 -3 -3 44 -4 104 -1 101 5 103 5 30 -3 -44 -5 -97 -11 -118 -13
-26 -4 -35 -2 -30 6 4 7 -1 6 -10 -2 -13 -10 -17 -29 -17 -78 0 -57 -2 -64
-15 -53 -13 10 -19 10 -34 -4 -17 -15 -20 -14 -46 24 -31 45 -35 48 -28 20 3
-11 -2 -32 -11 -47 l-17 -28 21 24 c23 27 22 28 44 -17 16 -31 16 -35 2 -51
-9 -10 -14 -20 -11 -23 3 -3 -2 -21 -10 -41 -19 -46 -19 -127 0 -174 13 -32
13 -34 0 -23 -8 7 -22 37 -31 66 -8 30 -19 56 -23 58 -4 3 1 -23 12 -57 22
-71 66 -122 98 -112 17 6 19 1 21 -42 1 -46 1 -47 5 -8 6 64 12 74 29 50 8
-11 20 -20 27 -20 8 0 14 -36 20 -115 9 -141 15 -157 62 -166 53 -10 536 2
565 13 l25 10 1 -121 c0 -125 26 -251 60 -304 36 -55 144 -81 218 -52 20 7 27
6 35 -8 9 -15 10 -15 11 4 0 23 35 48 163 118 38 21 84 51 103 68 31 27 33 34
29 71 -4 34 -3 37 5 17 14 -38 2 47 -21 148 -10 45 -19 108 -19 140 -1 33 -7
67 -16 82 -11 18 -13 19 -9 5 4 -11 8 -42 10 -70 5 -52 0 -46 -9 16 -4 19 -15
45 -27 57 -11 12 -16 23 -12 23 4 1 -5 4 -20 8 -26 5 -32 15 -57 91 -15 47
-29 78 -30 70 -1 -11 -4 -9 -10 5 -12 28 -12 43 1 25 9 -12 10 -12 5 3 -3 10
-6 21 -6 23 0 3 -4 3 -9 0 -10 -6 -35 54 -26 62 3 3 5 -1 5 -8 0 -7 2 -11 6
-8 3 3 -6 34 -20 69 -14 34 -25 63 -23 64 1 2 25 14 52 28 219 110 329 301
312 541 -4 54 -1 101 8 141 18 75 12 84 -9 14z m-782 -517 c3 -5 8 -59 12
-120 7 -109 6 -112 -14 -112 -20 0 -21 6 -24 120 -2 88 0 120 9 120 6 0 14 -4
17 -8z m-607 -129 c-2 -21 -4 -4 -4 37 0 41 2 58 4 38 2 -21 2 -55 0 -75z
m671 39 c2 -39 -1 -62 -8 -62 -5 0 -10 19 -11 43 0 23 -2 53 -5 65 -3 16 0 22
8 20 8 -3 14 -28 16 -66z m-631 -4 c-3 -7 -5 -2 -5 12 0 14 2 19 5 13 2 -7 2
-19 0 -25z m458 13 c3 -5 2 -12 -3 -15 -5 -3 -9 1 -9 9 0 17 3 19 12 6z m-410
-31 c-10 -11 -23 -20 -28 -20 -6 0 0 9 13 20 13 11 25 20 28 20 3 0 -3 -9 -13
-20z m28 -5 c-3 -9 -8 -14 -10 -11 -3 3 -2 9 2 15 9 16 15 13 8 -4z m367 1 c0
-3 -4 -8 -10 -11 -5 -3 -10 -1 -10 4 0 6 5 11 10 11 6 0 10 -2 10 -4z m429
-42 c19 -24 31 -47 28 -50 -3 -3 5 -16 18 -28 21 -18 25 -33 31 -108 8 -110
-2 -139 -59 -166 -23 -10 -57 -22 -75 -25 l-33 -7 7 58 c11 81 7 147 -10 181
-15 29 -15 30 14 42 34 16 19 32 -17 18 -46 -17 -53 -12 -53 35 0 44 1 45 53
70 28 14 54 25 57 25 3 0 20 -20 39 -45z m-814 16 c3 -5 1 -10 -4 -10 -6 0
-11 5 -11 10 0 6 2 10 4 10 3 0 8 -4 11 -10z m405 2 c0 -5 -7 -9 -15 -9 -8 0
-12 4 -9 9 3 4 9 8 15 8 5 0 9 -4 9 -8z m-542 -72 l-3 -38 46 -6 c56 -8 85
-27 75 -51 -5 -14 -14 -16 -44 -12 -25 5 -32 3 -22 -3 8 -5 25 -10 37 -10 21
0 51 -36 39 -47 -3 -3 -20 -9 -38 -13 l-33 -8 33 -1 c25 -1 32 -5 32 -21 0
-57 -177 -25 -200 36 -11 27 -4 61 30 159 11 33 23 67 26 75 10 27 26 -18 22
-60z m95 53 c-4 -9 -2 -14 3 -10 6 3 11 -3 11 -14 1 -10 -3 -19 -8 -19 -6 0
-8 -10 -4 -22 4 -15 3 -19 -3 -10 -12 18 -14 92 -2 92 5 0 6 -7 3 -17z m656
-80 c29 -57 34 -78 35 -142 l1 -76 -98 1 c-80 0 -102 4 -123 20 -35 26 -30 39
11 37 47 -3 44 4 -6 17 -33 9 -40 15 -37 33 3 19 11 23 58 27 l55 6 -47 8
c-54 9 -59 18 -23 42 19 12 40 15 80 12 39 -3 52 -1 45 6 -15 15 -13 76 3 76
7 0 28 -30 46 -67z m-407 5 c7 -13 11 -29 9 -36 -1 -9 4 -12 17 -8 15 5 25 -2
42 -29 12 -19 19 -42 16 -50 -3 -10 0 -12 11 -8 13 5 15 0 9 -33 -10 -51 -15
-57 -32 -43 -16 13 -20 -1 -4 -17 5 -5 6 -15 1 -22 -5 -9 -12 -7 -28 7 -11 11
-23 17 -27 14 -3 -3 6 -15 20 -26 l25 -19 -20 -22 c-12 -13 -18 -25 -15 -29 3
-3 2 -12 -2 -19 -5 -7 -9 -16 -10 -20 -1 -5 -2 -11 -3 -14 0 -4 -8 -1 -17 7
-9 7 -13 21 -10 34 4 17 -2 29 -26 49 -34 28 -27 36 10 10 12 -8 22 -12 22 -8
0 3 7 1 15 -6 20 -16 41 1 32 25 -6 14 -9 14 -34 -1 -19 -11 -22 -11 -10 -1
18 15 24 32 7 22 -5 -3 -10 -2 -10 3 0 5 -9 12 -21 15 -20 5 -20 5 -3 -14 9
-10 15 -22 12 -25 -3 -3 -15 6 -26 20 -22 29 -37 34 -28 10 12 -30 -15 -2 -35
39 -17 32 -19 45 -10 59 6 10 11 24 11 32 0 7 7 20 17 27 15 13 15 12 4 -9 -6
-12 -9 -27 -6 -32 7 -11 45 19 45 36 0 7 6 14 13 17 6 2 9 8 5 12 -4 4 -14 3
-21 -4 -21 -17 -16 17 7 52 22 33 32 34 48 5z m728 -23 c0 -5 -5 -3 -10 5 -5
8 -10 20 -10 25 0 6 5 3 10 -5 5 -8 10 -19 10 -25z m-225 -55 c18 -34 20 -143
4 -189 -10 -29 -44 -59 -55 -48 -3 2 0 37 7 76 8 53 8 90 0 135 -6 34 -11 66
-11 70 0 16 41 -17 55 -44z m229 -154 c24 -74 21 -104 -11 -117 -15 -6 -35 -8
-45 -6 -10 3 -18 1 -18 -4 0 -5 -11 -7 -25 -3 -17 4 -37 -2 -70 -25 l-45 -30
0 38 c0 34 3 40 28 46 43 10 121 65 137 96 8 15 15 38 15 51 0 32 14 12 34
-46z m85 -46 c0 -9 -4 -8 -9 5 -5 11 -9 27 -9 35 0 9 4 8 9 -5 5 -11 9 -27 9
-35z m-429 -108 c8 -108 5 -152 -10 -152 -13 0 -20 59 -20 173 0 145 19 132
30 -21z m-66 57 c11 -110 8 -209 -8 -209 -18 0 -26 52 -26 173 0 75 3 97 14
97 9 0 15 -20 20 -61z m449 -4 c-3 -9 -8 -14 -10 -11 -3 3 -2 9 2 15 9 16 15
13 8 -4z m-1026 -57 c-2 -13 -4 -5 -4 17 -1 22 1 32 4 23 2 -10 2 -28 0 -40z
m1023 18 c0 -2 -8 -10 -17 -17 -16 -13 -17 -12 -4 4 13 16 21 21 21 13z m-70
-16 c-8 -5 -19 -10 -25 -10 -5 0 -3 5 5 10 8 5 20 10 25 10 6 0 3 -5 -5 -10z
m-41 -14 c-10 -9 -89 -46 -89 -41 0 6 72 44 84 45 5 0 7 -2 5 -4z m161 -26
c-8 -5 -19 -10 -25 -10 -5 0 -3 5 5 10 8 5 20 10 25 10 6 0 3 -5 -5 -10z m-75
-31 c-22 -10 -47 -18 -55 -18 -10 1 -10 3 3 6 9 2 15 9 12 14 -3 5 1 6 9 3 8
-3 23 -1 33 5 10 6 23 10 28 10 6 0 -8 -9 -30 -20z m-966 -93 c9 -11 10 -16 2
-16 -16 0 -31 44 -30 83 1 29 2 27 8 -10 4 -23 13 -48 20 -57z m27 67 c-4 -9
-1 -20 6 -25 9 -5 10 -8 1 -8 -6 0 -14 4 -17 9 -6 10 3 41 11 41 3 0 2 -8 -1
-17z m57 4 c3 -8 -1 -14 -8 -14 -7 0 -11 6 -8 14 3 7 6 13 8 13 2 0 5 -6 8
-13z m723 -12 c9 -14 14 -28 10 -32 -3 -3 -6 -1 -6 5 0 6 -10 20 -22 32 -12
11 -17 20 -10 20 6 0 19 -11 28 -25z m235 -296 c-16 -6 -28 -6 -35 1 -7 7 1
10 25 9 32 0 33 -1 10 -10z"/>
<path d="M3630 2006 c0 -2 8 -10 18 -17 15 -13 16 -12 3 4 -13 16 -21 21 -21
13z"/>
<path d="M3030 2056 c0 -8 -7 -16 -15 -20 -8 -3 -15 -11 -15 -18 0 -10 2 -10
8 -1 5 8 11 8 24 -1 10 -7 16 -15 13 -18 -3 -2 1 -5 9 -5 15 0 15 27 1 60 -9
20 -25 23 -25 3z m25 -26 c-3 -5 -10 -10 -16 -10 -5 0 -9 5 -9 10 0 6 7 10 16
10 8 0 12 -4 9 -10z"/>
<path d="M3093 1999 c-5 -5 -23 -12 -39 -15 -16 -3 -31 -9 -34 -13 -41 -59
-64 -81 -72 -69 -7 10 -9 10 -5 -2 2 -8 13 -14 23 -12 15 3 16 1 7 -8 -18 -19
-5 -37 24 -34 15 1 34 -1 43 -6 11 -6 25 -4 40 7 13 9 21 12 17 7 -3 -6 4 -16
16 -24 20 -12 21 -12 9 3 -18 21 -6 43 13 27 12 -10 12 -6 5 21 -6 19 -8 41
-5 50 8 23 -28 82 -42 68z m-17 -28 c-3 -4 4 -17 16 -27 17 -15 20 -16 16 -3
-4 9 -1 16 7 16 10 0 11 -5 5 -17 -5 -9 -7 -26 -4 -37 3 -12 1 -24 -5 -27 -7
-4 -9 -1 -5 8 6 15 -14 61 -23 53 -2 -3 1 -15 7 -27 8 -15 8 -20 1 -16 -6 4
-11 2 -11 -3 0 -6 -8 -11 -17 -11 -15 0 -14 2 2 14 19 14 19 14 0 36 -18 20
-18 20 0 14 13 -5 16 -4 11 4 -10 17 -41 15 -56 -3 -7 -8 -15 -29 -19 -47 -4
-17 -12 -33 -19 -34 -7 -1 -8 0 -2 3 5 2 10 17 10 32 0 30 32 66 65 74 11 3
21 5 23 6 2 0 1 -3 -2 -8z m-36 -56 c0 -8 -2 -15 -4 -15 -2 0 -6 7 -10 15 -3
8 -1 15 4 15 6 0 10 -7 10 -15z m-23 -37 c-3 -7 -5 -2 -5 12 0 14 2 19 5 13 2
-7 2 -19 0 -25z"/>
<path d="M2955 1920 c3 -5 8 -10 11 -10 2 0 4 5 4 10 0 6 -5 10 -11 10 -5 0
-7 -4 -4 -10z"/>
<path d="M3050 1760 c0 -5 5 -10 11 -10 5 0 7 5 4 10 -3 6 -8 10 -11 10 -2 0
-4 -4 -4 -10z"/>
<path d="M3053 1724 c-3 -8 0 -21 6 -27 9 -9 11 -8 6 6 -4 10 -2 17 4 17 6 0
11 5 11 10 0 16 -20 12 -27 -6z"/>
<path d="M905 2841 c-23 -5 -26 -8 -13 -13 9 -4 24 0 35 7 10 8 16 14 13 13
-3 0 -18 -3 -35 -7z"/>
<path d="M1001 2824 c0 -11 3 -14 6 -6 3 7 2 16 -1 19 -3 4 -6 -2 -5 -13z"/>
<path d="M3796 2805 c3 -23 0 -54 -6 -70 -9 -26 -8 -28 4 -12 7 9 18 17 25 17
6 0 11 5 11 10 0 6 -4 10 -10 10 -5 0 -10 10 -11 23 0 12 -5 31 -10 42 -6 14
-7 9 -3 -20z"/>
<path d="M3950 2820 c-9 -6 -10 -10 -3 -10 6 0 15 5 18 10 8 12 4 12 -15 0z"/>
<path d="M972 2785 c-7 -8 -9 -15 -4 -15 5 0 15 7 22 15 16 19 -1 19 -18 0z"/>
<path d="M1290 2775 c14 -17 80 -59 84 -54 2 2 -19 19 -47 37 -27 18 -44 26
-37 17z"/>
<path d="M2551 2780 c0 -8 4 -22 9 -30 12 -18 12 -2 0 25 -6 13 -9 15 -9 5z"/>
<path d="M2965 2770 c-3 -5 1 -10 9 -10 9 0 16 5 16 10 0 6 -4 10 -9 10 -6 0
-13 -4 -16 -10z"/>
<path d="M1425 2700 c11 -5 27 -9 35 -9 9 0 8 4 -5 9 -11 5 -27 9 -35 9 -9 0
-8 -4 5 -9z"/>
<path d="M3010 2699 c-19 -4 -52 -5 -72 -2 -35 5 -38 4 -38 -19 0 -49 63 -78
125 -58 39 13 59 41 50 70 -7 22 -12 22 -65 9z"/>
<path d="M1574 2584 c-18 -14 -18 -15 4 -4 12 6 22 13 22 15 0 8 -5 6 -26 -11z"/>
<path d="M2110 2596 c0 -2 8 -10 18 -17 15 -13 16 -12 3 4 -13 16 -21 21 -21
13z"/>
<path d="M3330 2500 c-19 -11 -31 -19 -27 -20 11 0 67 29 67 35 0 7 -1 7 -40
-15z"/>
<path d="M2858 2443 c7 -3 16 -2 19 1 4 3 -2 6 -13 5 -11 0 -14 -3 -6 -6z"/>
<path d="M2659 2383 c-13 -16 -12 -17 4 -4 16 13 21 21 13 21 -2 0 -10 -8 -17
-17z"/>
<path d="M1222 2150 c0 -19 2 -27 5 -17 2 9 2 25 0 35 -3 9 -5 1 -5 -18z"/>
<path d="M2365 2003 c-22 -19 -31 -31 -20 -25 19 9 74 63 64 62 -2 -1 -22 -17
-44 -37z"/>
<path d="M1292 1695 c0 -16 2 -22 5 -12 2 9 2 23 0 30 -3 6 -5 -1 -5 -18z"/>
<path d="M2703 1620 c0 -30 2 -43 4 -27 2 15 2 39 0 55 -2 15 -4 2 -4 -28z"/>
<path d="M2262 1470 c0 -19 2 -27 5 -17 2 9 2 25 0 35 -3 9 -5 1 -5 -18z"/>
<path d="M2694 1160 c0 -162 2 -229 3 -147 2 81 2 213 0 295 -1 81 -3 14 -3
-148z"/>
<path d="M2272 1390 c0 -19 2 -27 5 -17 2 9 2 25 0 35 -3 9 -5 1 -5 -18z"/>
<path d="M1755 1320 c-9 -16 -13 -30 -11 -30 3 0 12 14 21 30 9 17 13 30 11
30 -3 0 -12 -13 -21 -30z"/>
<path d="M2285 1285 c2 -34 11 -76 18 -95 8 -19 23 -69 33 -110 10 -41 24 -81
31 -88 18 -19 18 -18 -28 125 -23 70 -45 150 -50 178 l-8 50 4 -60z"/>
<path d="M1714 1248 c-9 -18 -28 -53 -42 -78 -14 -25 -20 -40 -15 -35 15 13
86 145 79 145 -3 0 -13 -15 -22 -32z"/>
<path d="M1625 1090 c-9 -16 -13 -30 -11 -30 3 0 12 14 21 30 9 17 13 30 11
30 -3 0 -12 -13 -21 -30z"/>
<path d="M3810 950 c-3 -28 -10 -44 -17 -43 -7 2 -10 -3 -7 -11 12 -31 -121
-111 -202 -121 -42 -6 -57 -3 -106 23 -54 29 -57 29 -43 8 8 -12 12 -26 8 -31
-5 -4 -3 -5 4 -1 6 3 14 2 17 -3 9 -14 -85 -31 -167 -31 -73 0 -113 12 -302
85 -94 36 -168 36 -224 0 -23 -14 -41 -30 -41 -35 0 -17 -18 -11 -23 8 -4 16
-5 16 -6 -1 -1 -10 13 -26 34 -39 35 -20 35 -21 18 -40 -13 -15 -8 -14 21 6
46 31 85 33 142 7 46 -21 74 -54 74 -87 0 -19 -8 -24 -50 -33 -100 -21 -214
-8 -223 27 -3 11 -5 8 -6 -8 -1 -18 5 -26 17 -27 9 -1 42 -7 72 -12 83 -16
210 8 210 41 1 7 15 20 34 28 l33 16 -6 -31 c-5 -23 -16 -35 -51 -52 -84 -41
-223 -51 -285 -20 -19 9 -19 9 -2 -9 15 -16 33 -19 120 -19 85 0 112 4 162 25
l60 25 9 58 9 57 101 1 c176 1 233 5 265 19 45 18 64 8 49 -27 -21 -51 -45
-67 -106 -74 l-57 -6 55 -1 c72 -2 111 22 145 88 19 37 31 50 48 50 12 0 47
12 77 26 109 51 154 103 148 172 l-4 37 -4 -45z m-805 -179 c22 -10 48 -27 58
-39 18 -20 18 -21 -2 -41 -28 -28 -45 -26 -70 5 -28 35 -87 64 -136 65 l-40 1
30 13 c42 20 113 18 160 -4z"/>
<path d="M2382 945 c0 -16 2 -22 5 -12 2 9 2 23 0 30 -3 6 -5 -1 -5 -18z"/>
<path d="M2391 764 c0 -11 3 -14 6 -6 3 7 2 16 -1 19 -3 4 -6 -2 -5 -13z"/>
</g>
</svg>
